<?xml version="1.0" encoding="utf-8"?>
<!-- Generator: Adobe Illustrator 23.0.1, SVG Export Plug-In . SVG Version: 6.00 Build 0)  -->
<svg version="1.1" id="Layer_1" xmlns="http://www.w3.org/2000/svg" xmlns:xlink="http://www.w3.org/1999/xlink" x="0px" y="0px"
	 viewBox="0 0 1600 900" style="enable-background:new 0 0 1600 900;" xml:space="preserve">
<style type="text/css">
	.st0{fill:#454D5B;}
	.st1{fill:#4C4151;}
	.st2{fill:#3D303E;}
	.st3{fill:#495260;}
	.st4{fill:#8592A0;}
	.st5{fill:#AEB1BF;}
	.st6{fill:#EBF9FF;}
	.st7{fill:#C6CBDB;}
	.st8{fill:#5D6677;}
	.st9{clip-path:url(#XMLID_2_);fill:#3A1C19;}
	.st10{clip-path:url(#XMLID_2_);fill:none;stroke:#3A1C19;stroke-width:2.1682;stroke-linecap:round;stroke-miterlimit:10;}
	.st11{clip-path:url(#XMLID_2_);fill:#230D0C;}
	.st12{clip-path:url(#XMLID_15_);fill:#3D303E;}
	.st13{clip-path:url(#XMLID_15_);fill:#2E282F;}
	.st14{clip-path:url(#XMLID_15_);fill:none;stroke:#3D303E;stroke-width:2;stroke-linecap:round;stroke-miterlimit:10;}
	.st15{clip-path:url(#XMLID_16_);fill:#3D303E;}
	.st16{clip-path:url(#XMLID_16_);fill:none;stroke:#3D303E;stroke-width:2;stroke-linecap:round;stroke-miterlimit:10;}
	.st17{fill:#E59276;}
	.st18{fill:#BA5743;}
	.st19{fill:none;stroke:#3D303E;stroke-width:2.9927;stroke-linecap:round;stroke-miterlimit:10;}
	.st20{fill:none;stroke:#BA5743;stroke-width:3;stroke-linecap:round;stroke-miterlimit:10;}
	.st21{fill:none;stroke:#C62610;stroke-width:3.0018;stroke-linecap:round;stroke-miterlimit:10;}
	.st22{fill:#0586CE;}
	.st23{fill:#695C70;}
	.st24{clip-path:url(#XMLID_17_);fill:#1D191E;}
	.st25{clip-path:url(#XMLID_17_);fill:none;stroke:#1D191E;stroke-width:2;stroke-linecap:round;stroke-miterlimit:10;}
	.st26{clip-path:url(#XMLID_17_);fill:#230D0C;}
	.st27{clip-path:url(#XMLID_18_);fill:#1D191E;}
	.st28{clip-path:url(#XMLID_18_);fill:none;stroke:#1D191E;stroke-width:2;stroke-linecap:round;stroke-miterlimit:10;}
	.st29{clip-path:url(#XMLID_18_);fill:#230D0C;}
	.st30{clip-path:url(#XMLID_19_);fill:#3A1A16;}
	.st31{clip-path:url(#XMLID_19_);fill:none;stroke:#3A1A16;stroke-width:2;stroke-linecap:round;stroke-miterlimit:10;}
	.st32{fill:#723731;}
	.st33{fill:#F7B288;}
	.st34{fill:#DC765D;}
	.st35{fill:#542F28;}
	.st36{fill:#C62610;}
	.st37{fill:none;stroke:#AEB1BF;stroke-width:3;stroke-linecap:round;stroke-miterlimit:10;}
	.st38{fill:#422826;}
	.st39{fill:none;stroke:#DD7962;stroke-width:3.1768;stroke-linecap:round;stroke-miterlimit:10;}
	.st40{fill:none;stroke:#EF8E73;stroke-width:2.4801;stroke-linecap:round;stroke-miterlimit:10;}
	.st41{fill:#219FF4;}
	.st42{fill:#2E282F;}
	.st43{clip-path:url(#XMLID_20_);fill:#2E282F;}
	.st44{clip-path:url(#XMLID_21_);fill:#2E282F;}
	.st45{fill:#FFFFFF;}
	.st46{fill:#E04848;stroke:#E04848;stroke-width:0.2159;stroke-linecap:round;stroke-linejoin:round;stroke-miterlimit:10;}
	.st47{fill:#592820;}
	.st48{fill:none;stroke:#EF8E73;stroke-width:1.9871;stroke-linecap:round;stroke-miterlimit:10;}
	.st49{fill:#3F2926;}
	.st50{fill:#1D191E;}
	.st51{fill:#682421;}
	.st52{fill:#FB2820;}
	.st53{fill:#8C4035;}
	.st54{clip-path:url(#XMLID_22_);fill:#C6CBDB;}
	.st55{clip-path:url(#XMLID_23_);fill:#2E282F;}
	.st56{clip-path:url(#XMLID_23_);fill:none;stroke:#2E282F;stroke-width:3;stroke-linecap:round;stroke-miterlimit:10;}
	.st57{clip-path:url(#XMLID_24_);fill:#2E282F;}
	.st58{clip-path:url(#XMLID_25_);fill:#2E282F;}
	.st59{clip-path:url(#XMLID_25_);fill:none;stroke:#2E282F;stroke-width:3;stroke-linecap:round;stroke-miterlimit:10;}
	.st60{fill:none;stroke:#DD7962;stroke-width:3.2666;stroke-linecap:round;stroke-miterlimit:10;}
	.st61{fill:none;stroke:#EF8E73;stroke-width:2.5502;stroke-linecap:round;stroke-miterlimit:10;}
	.st62{fill:none;stroke:#3D303E;stroke-width:2;stroke-miterlimit:10;}
	.st63{fill:#FDC78B;}
	.st64{fill:none;stroke:#4C4151;stroke-width:2.8872;stroke-linecap:round;stroke-miterlimit:10;}
	.st65{fill:none;stroke:#DC765D;stroke-width:2.9927;stroke-linecap:round;stroke-miterlimit:10;}
	.st66{clip-path:url(#XMLID_26_);fill:#3A1C19;}
	.st67{clip-path:url(#XMLID_26_);fill:none;stroke:#3A1C19;stroke-width:2;stroke-linecap:round;stroke-miterlimit:10;}
	.st68{clip-path:url(#XMLID_26_);fill:#230D0C;}
	.st69{clip-path:url(#XMLID_27_);fill:#3A1C19;}
	.st70{clip-path:url(#XMLID_27_);fill:none;stroke:#3A1C19;stroke-width:2;stroke-linecap:round;stroke-miterlimit:10;}
	.st71{clip-path:url(#XMLID_27_);fill:#230D0C;}
	.st72{fill:#6F788C;}
	.st73{fill:#D8DDEA;}
	.st74{fill:#A4B6BA;}
	.st75{fill:#BCD0D6;}
	.st76{fill:#CEE2E5;}
	.st77{fill:none;stroke:#682421;stroke-width:1.9863;stroke-linecap:round;stroke-miterlimit:10;}
</style>
<g>
	<polygon class="st0" points="461.4,806 445.4,806 456.9,575 479.9,575 	"/>
	<polygon class="st0" points="1152.9,806 1168.9,806 1157.4,575 1134.4,575 	"/>
</g>
<g>
	<path class="st1" d="M1029.4,261c-26.4,11-32.6,20.5-37.1,164.5l25.9-1.9L1029.4,261z"/>
	<path class="st2" d="M1013.8,298.5c-6.2,20-6.8,56-7.1,77c-0.5,40.9-8.1,47.8-14.5,50l25.9-1.9l11.6-160.7
		C1029.6,259.9,1016.5,290,1013.8,298.5z"/>
	<g>
		<polygon class="st3" points="974,510.6 963.8,505.6 963.8,427.7 974,432.7 		"/>
		<polygon class="st4" points="1033.8,500.6 974,510.6 974,432.7 1033.8,422.7 		"/>
		<polygon class="st5" points="1033.8,422.7 974,432.7 963.8,427.7 1023.5,417.7 		"/>
		<polygon class="st6" points="1032,421.8 972.3,431.8 965.5,428.5 1025.3,418.5 		"/>
		<polygon class="st7" points="965.5,430.8 965.5,503.8 972.3,507.1 972.3,434.1 		"/>
	</g>
	<path class="st8" d="M1006.1,427.7l-4.7,52.8c0,0-17.5-3.3-18.9,16.8l1,11.7l50.2-8.4v-77.9L1006.1,427.7z"/>
	<path class="st6" d="M1130.8,383.3l-1.8,2.1c0,0,11.5,1.6,19,17.1l1.9-3C1149.9,399.5,1150,380.8,1130.8,383.3z"/>
	<g>
		<defs>
			<path id="XMLID_12_" d="M1038.8,776.5c-4.6,10.5-28.6,11.2-30.7,17.3s-0.8,12.2-0.8,12.2h67v-38
				C1074.4,768,1050.8,768.8,1038.8,776.5z"/>
		</defs>
		<use xlink:href="#XMLID_12_"  style="overflow:visible;fill:#542F28;"/>
		<clipPath id="XMLID_2_">
			<use xlink:href="#XMLID_12_"  style="overflow:visible;"/>
		</clipPath>
		<path class="st9" d="M1033.1,781.6c19-3.6,36.1,1,42.4,3.8c5.4,2.5,11.1-15.6-1.1-17.4c-12.2-1.8-35.9,2.4-38.3,6.6
			C1033.7,778.7,1033.1,781.6,1033.1,781.6z"/>
		<path class="st10" d="M1056.3,784.7c-17.6-4.9-24.5-2-30.2,0.7"/>
		<path class="st10" d="M1051.5,787.6c-11.7-4.3-29.6-3.8-37.6,0"/>
		<path class="st9" d="M1005.2,803.6c4.8-0.9,9.3-1.4,22-1.4c10,0,17.9,1.6,25.2,1.1c11.1-0.8,10.6-6,25.7-6c8.1,0,5.1,12.2-6,14.4
			c-11.1,2.2-62.5,2.7-67-0.5V803.6z"/>
		<path class="st11" d="M1067.4,806.7v-4.3c0,0-6.5,3.3-10.4,4.3H1067.4z"/>
	</g>
	<g>
		<defs>
			<path id="XMLID_10_" d="M1015.8,480.5c2.9,137.2,16.3,299.6,16.3,299.6s28.5,5.3,42.4,0l-5-266.1h8l34.8,264.7
				c0,0,33.7,8.1,44-1.2l-27.7-297H1015.8z"/>
		</defs>
		<use xlink:href="#XMLID_10_"  style="overflow:visible;fill:#4C4151;"/>
		<clipPath id="XMLID_15_">
			<use xlink:href="#XMLID_10_"  style="overflow:visible;"/>
		</clipPath>
		<path class="st12" d="M1003.9,483.7c41.3,21,122.5,11.5,132.6,3.3c10.2-8.2-1.5-24.9-1.5-24.9l-131.1,12.2V483.7z"/>
		<rect x="1014.1" y="573.6" class="st12" width="145.1" height="231.4"/>
		<path class="st13" d="M1141.5,581.3c0.2,1-34.9,184.1-34.9,184.1s6.9,27.9,7.1,27.6s50.6-10.5,50.6-10.5l-5.5-177.8L1141.5,581.3z
			"/>
		<polygon class="st12" points="1048,509.8 1077.4,514 1072,523.7 		"/>
		<path class="st14" d="M1065,491.2c1.5,10.8,0.2,15.9,4.4,22.8"/>
		<path class="st14" d="M1063.5,516.5c1,51.5,1.5,265.7,1.5,265.7"/>
	</g>
	<g>
		<defs>
			<path id="XMLID_9_" d="M1099.9,258.5c23.8,6.2,45.6,22.3,91.8,61.1c7.3,6.2,9.2,16.7,4.4,25c-8.2,14.3-23.2,36.3-46.2,54.9
				c0,0-8.4-15.3-19.2-16.3c0,0,23.8-39,24.3-44.8c-10.8-6.8-20.9-12.7-32.1-15.7c0,0-2,120.5,5.5,157.8c0,0-57.8,17-112.8,0
				c0,0-2.8-166.8-2.8-185.5s10.7-32.5,18.5-35c6.6-2.1,49.2-4,61.3-2.8C1095.2,257.5,1097.6,257.9,1099.9,258.5z"/>
		</defs>
		<use xlink:href="#XMLID_9_"  style="overflow:visible;fill:#4C4151;"/>
		<clipPath id="XMLID_16_">
			<use xlink:href="#XMLID_9_"  style="overflow:visible;"/>
		</clipPath>
		<path class="st15" d="M1097.4,254.1c2.6,16.1,1.3,34.2,1.3,34.2l-15.9,2.9l12.6,11.5c0,0-12,27.9-47.8,50.3l2,138.9l-2-2.9
			l-2.5-136.8c0,0-30.6-28.3-28.7-56.3l13.8-6.8l-11.2-4.7c0,0,13.9-29,17.1-31.3C1039.5,251,1082.1,245.4,1097.4,254.1z"/>
		<path class="st15" d="M1159.9,320.3c-7.7,13.9-12.7,17.1-12.7,17.1l7.9,1.1C1155.1,338.5,1158.9,326.3,1159.9,320.3z"/>
		<polygon class="st15" points="1104.5,320 1123,322.8 1122.9,343 		"/>
		<circle class="st15" cx="1055.4" cy="357.3" r="4.2"/>
		<path class="st15" d="M1051.2,400c0-2.3,1.9-4.2,4.2-4.2s4.2,1.9,4.2,4.2c0,2.3-1.9,4.2-4.2,4.2S1051.2,402.3,1051.2,400z"/>
		<path class="st15" d="M1050.4,442.7c0-2.3,1.9-4.2,4.2-4.2c2.3,0,4.2,1.9,4.2,4.2c0,2.3-1.9,4.2-4.2,4.2
			C1052.3,446.8,1050.4,445,1050.4,442.7z"/>
		<path class="st16" d="M1119.3,323.8c-20-14-14.4-59.1,4.8-63.3"/>
		<path class="st16" d="M1119.3,323.8c-4.5,14-4.8,132,5.3,164.3"/>
	</g>
	<path class="st17" d="M1129,385.4c-4.8,2.9-11.5,7.1-14.3,10.2s-9.7,16.6-8.9,19.1s1.1,2.9,3.4,2.8c2.3-0.1,8.2-11.5,10.5-13.9
		c0,0-6.1,11.2-9,18.9c-3.2,8.2,3.3,10.8,6.6,5.6c0,0,1.6,7.1,5.1,5.1c3.9-2.2,10.8-15.7,10.8-15.7s-9.4,8-9.3,10.5s3.5,3.8,5.1,2.6
		c6.4-5.3,9.4-7.2,12-11.7c3-5.2,8.7-12.2,7-16.5C1143.1,390.4,1129,385.4,1129,385.4z"/>
	<path class="st18" d="M1125.9,429.8c3.8-5.8,9.1-13.8,9.1-13.8l-6,14.7C1129,430.7,1126,432.3,1125.9,429.8z"/>
	<path class="st18" d="M1148,402.5c-4.9-12.1-19-17.1-19-17.1c10.5,6.1,15.4,16.3,16.2,26.8l0,0C1147.4,408.7,1149,405.1,1148,402.5
		z"/>
	<g>
		<g>
			<path class="st17" d="M1050.9,230c-0.2,4.7-1.2,26.3-0.9,19.1c-4.1,13.2,24.6,9.9,26.4-2l1-29.4L1050.9,230z"/>
			<path class="st18" d="M1050.2,242c9.7,0,18.8-10,19-16l-18.8,8.9L1050.2,242z"/>
			<g>
				<path class="st17" d="M1084.9,169.4c-4.1-20.4-30.5-19.2-47.9-17.9c-17.4,1.3-20.4,1.2-20.4,23.5c0.1,22.3,0,14.8,0,24.1
					c0.1,18,9.8,37.7,32.3,37.7c22.7,0,33.6-15.5,36.4-28.2C1085.3,208.5,1089,189.8,1084.9,169.4z"/>
				<path class="st19" d="M1053.2,175.4c5.8,0,11.3-0.8,13.6,2.8"/>
				<path class="st19" d="M1034.7,175.4c-4.1,0-11-1.1-11.4,1.7"/>
				<path class="st2" d="M1056.3,189.2c0-2.3,1.3-4.1,3-4.1c1.7,0,3,1.8,3,4.1c0,2.3-1.3,4.1-3,4.1
					C1057.6,193.3,1056.3,191.4,1056.3,189.2z"/>
				<path class="st2" d="M1027.4,189.2c0-2.3,1.3-4.1,3-4.1c1.7,0,3,1.8,3,4.1c0,2.3-1.3,4.1-3,4.1S1027.4,191.5,1027.4,189.2z"/>
				<path class="st20" d="M1038.8,202.7c2.6,2,7.5,3,9,3"/>
				<path class="st21" d="M1053.4,218.3c-6.8,3.1-14.8,1.6-17.6-0.5"/>
			</g>
			<path class="st2" d="M1094.2,149.1c-2.7-21.9-23.6-25-40-23.9c-12.6,0.8-26.6,7.3-33.5,18.8c-9.2,15.5-4.2,32.9-4.2,32.9
				c0.2-8.5,3.4-19,7.3-21.4c12.5,6.8,28.1,4.7,37.3,2.7c13.8-3,18.3,4.8,18.3,10.5c0,8.6-2,22.3,2.9,25.1c0,0,2.7,2.2,2.3,8.9
				c-0.4,6.8-2.6,15-2.6,15C1102.3,205.3,1110.1,164.8,1094.2,149.1z"/>
			<path class="st17" d="M1082.9,191.4c1.9-11.5,13.7-10.1,16.3-4.1c3.3,7.5-1.9,19.2-12.5,19.2
				C1077.3,206.4,1082.2,195.9,1082.9,191.4z"/>
		</g>
		<path class="st6" d="M1046.8,246.9c-10.3,27.8-12,42-12,42s-1.6,52.4,12,52c13.6-0.4,22.9-13.1,30.6-52c7.7-38.9,5-40.3,5-40.3
			l-27-1.7H1046.8z"/>
		<path class="st7" d="M1042.3,252.2c0.2,9.5-0.3,11.5,1.3,12.5l4.4-6.3c0,0,0.3,5.5,1.7,6.3c0,0-13.1,37.5-8.6,72.3l3.6,5
			l13.6-85.8l8.5,11.4c0,0,7.5-2.9,10.7-7.1c0,0-8.1,49.3-22,74.8l1.8,3.8c0,0,15.3-32.8,19.8-48.8s5.5-41.6,5.5-41.6l-27-1.7
			C1055.1,245.9,1045.8,243.5,1042.3,252.2z"/>
		<path class="st22" d="M1049.6,252.2c-1.4,9.5,2.1,11.3,2.1,11.3s-8.3,19.9-10.7,66.4c-0.5,5.9,4.1,19.8,5.7,20.6
			c0,0,6.8-7.5,10.7-13c6.1-51.8,5.5-71.8,2.2-74c0,0,3.9-3.8,3.8-9.5c-0.1-5.8-8.1-7-8.1-7L1049.6,252.2z"/>
		<path class="st6" d="M1050.2,242c3.5,3.9,5.2,4.9,5.2,4.9l-10.2,13.5C1045.2,260.4,1046.2,244.6,1050.2,242z"/>
		<path class="st6" d="M1076.7,239.7c-7.3,9-21.3,7.2-21.3,7.2l11.8,17.8c0,0,15.3-9,16.3-14.5L1076.7,239.7z"/>
		<path class="st23" d="M1046.8,246.9c-20.4,52.6,0,103.5,0,103.5s-28.4-30.1-28.6-53.8l16.6-7.8l-15.6-7.6c0,0,4.5-11.8,9.4-21
			c3-5.5,7.8-9.7,13.7-11.8L1046.8,246.9z"/>
		<path class="st23" d="M1082.4,248.6c-5,29.1-15.2,78.6-35.6,101.8c0,0,31.9-19.3,45.9-48.8c0,0-13.5-11-12.8-11.3
			s17.4-4.3,17.4-4.3s0.4-11.8-0.2-21c-0.4-5.7-3.8-10.8-8.9-13.5L1082.4,248.6z"/>
	</g>
	<path class="st17" d="M987,509.3c0.8,3.7,5,6.7,6.8,5.2c3-2.5,7.8-2.2,10-2.5c4.8-0.6,8.5-3.2,10.5-6.2c2-3-0.4-11.1-1.3-14.2
		c-0.9-3.1-5.8-3.2-5,1.8c0,0-0.6-5.1-2.3-7c-1.8-2-4.5-1.2-5.3,0.5c0,0-0.5-3.9-2.7-3.7c-6.7,0.8-5.2,9.3-5.4,11.2
		c0,0,0.8-2.4-3.4-2c-2.4,0.2-3.7,1.6-3.3,6.7C985.8,504.3,985.8,503.8,987,509.3z"/>
</g>
<g>
	<g>
		<defs>
			<path id="XMLID_13_" d="M806,775.5c4.8,10.9,29.5,11.6,31.6,17.9c2.2,6.3,0.8,12.6,0.8,12.6h-69.1v-39.2
				C769.3,766.8,793.7,767.7,806,775.5z"/>
		</defs>
		<use xlink:href="#XMLID_13_"  style="overflow:visible;fill:#2E282F;"/>
		<clipPath id="XMLID_17_">
			<use xlink:href="#XMLID_13_"  style="overflow:visible;"/>
		</clipPath>
		<path class="st24" d="M811.9,780.8c-23.9,3.1-37.2,1-43.7,3.9c-5.6,2.5-11.4-16.1,1.2-18c12.6-1.9,37,2.5,39.5,6.8
			C811.3,777.8,811.9,780.8,811.9,780.8z"/>
		<path class="st25" d="M788,784c18.2-5,25.3-2,31.2,0.8"/>
		<path class="st25" d="M792.9,787.1c12-4.5,30.5-3.9,38.8,0"/>
		<path class="st24" d="M840.7,803.5c-5-0.9-9.5-1.4-22.7-1.4c-10.4,0-18.5,1.7-26,1.1c-11.5-0.8-10.9-6.2-26.6-6.2
			c-8.4,0-5.3,12.6,6.2,14.8c11.5,2.2,64.5,2.8,69.1-0.6V803.5z"/>
		<path class="st26" d="M776.5,806.7v-4.5c0,0,6.7,3.4,10.8,4.5H776.5z"/>
	</g>
	<g>
		<defs>
			<path id="XMLID_14_" d="M672.4,775.5c-4.8,10.9-13.5,11.6-15.7,17.9c-2.2,6.3-0.8,12.6-0.8,12.6H709v-39.2
				C709,766.8,684.7,767.7,672.4,775.5z"/>
		</defs>
		<use xlink:href="#XMLID_14_"  style="overflow:visible;fill:#2E282F;"/>
		<clipPath id="XMLID_18_">
			<use xlink:href="#XMLID_14_"  style="overflow:visible;"/>
		</clipPath>
		<path class="st27" d="M666.5,780.8c23.9,3.1,37.2,1,43.7,3.9c5.6,2.5,11.4-16.1-1.2-18c-12.6-1.9-37,2.5-39.5,6.8
			C667,777.8,666.5,780.8,666.5,780.8z"/>
		<path class="st28" d="M696.3,783.8c-18.2-5-31.2-1.9-37.1,0.9"/>
		<path class="st28" d="M694,788.5c-12-4.5-23.1-5.4-31.4-1.4"/>
		<path class="st27" d="M653.6,803.5c5-0.9-6.4-1.4,6.7-1.4c10.4,0,18.5,1.7,26,1.1c11.5-0.8,10.9-6.2,26.6-6.2
			c8.4,0,5.3,12.6-6.2,14.8c-11.5,2.2-48.5,2.8-53.1-0.6V803.5z"/>
		<path class="st29" d="M701.9,806.7v-4.5c0,0-6.7,3.4-10.8,4.5H701.9z"/>
	</g>
	<g>
		<defs>
			<path id="XMLID_11_" d="M758.1,426.5l2.4,45l49,304.8c0,0-17.2,8.7-43.9,1.5l-51-293.1h-7.2l2.8,291.3c0,0-10.6,10.9-39.9-0.3
				c0,0-14.2-226.8-15.5-270.9c-1.3-44.1-2-41.5,0-78.2H758.1z"/>
		</defs>
		<use xlink:href="#XMLID_11_"  style="overflow:visible;fill:#542F28;"/>
		<clipPath id="XMLID_19_">
			<use xlink:href="#XMLID_11_"  style="overflow:visible;"/>
		</clipPath>
		<polygon class="st30" points="733.2,479.1 707.4,484.7 710.9,494.9 		"/>
		<path class="st31" d="M713,429.1c0,28.4-0.3,41-2.9,58"/>
		<path class="st31" d="M728,427.7c-0.5,19.8-2.1,32.4-2.1,32.4l-13.3,9.4"/>
		<path class="st31" d="M719.8,484.7c6.2,22.8,48.7,292.7,48.7,292.7"/>
		<rect x="649" y="564.5" class="st30" width="169" height="227.5"/>
		<path class="st31" d="M689.4,431.5c-8.9,10.5-9.6,9.6-9.6,9.6l-19-1.7"/>
		<path class="st31" d="M745.2,428c4.8,7.4,5.8,9.6,8.3,9.6c2.4,0,8.8-1.8,8.8-1.8"/>
		<path class="st31" d="M662,424.4c-2.5,20.6-3,64.1,1,144.6"/>
	</g>
	<path class="st32" d="M655.2,415.3l-0.4,11.3c0,0,37.4,12,103.3,0l-0.6-11.3H655.2z"/>
	<path class="st6" d="M681.7,242.2c-25.5,8.5-40.7,17-43.2,48.8c-1.4,18-2.7,42.9-3.6,61.2c-0.6,12.7,10.2,22.9,22.9,21.6l0,0
		l-2.5,41.5c0,0,61.5,11,102.3,0l-0.3-36.7l0,0c12.8-0.3,22.5-11.8,20.6-24.5c-5.4-35.9-16.4-89.2-31.4-98.4
		c-14-8.5-28.5-15.4-28.5-15.4l-9-1.3L681.7,242.2z"/>
	<g>
		<g>
			<path class="st33" d="M714,221c0.2,4.7,1.2,26.3,0.9,19.1c4.1,13.2-24.6,9.9-26.4-2l-1-29.4L714,221z"/>
			<path class="st34" d="M714.5,233.1c-9.7,0-18.6-10.1-18.8-16.1l18.8,8.9L714.5,233.1z"/>
			<g>
				<path class="st33" d="M680,160.4c4.1-20.4,30.5-19.2,47.9-17.9c17.4,1.3,20.4,1.2,20.4,23.5c-0.1,22.3,0,14.8,0,24.1
					c-0.1,18-9.8,37.7-32.3,37.7c-22.7,0-33.6-15.5-36.4-28.2C679.5,199.5,675.8,180.8,680,160.4z"/>
			</g>
			<path class="st35" d="M668.8,141.8c-1-18.5,21.1-27,39.3-25.5c23.8,2,35.8,12,37.5,22.8c7.2,7.8,2.8,25.7,2.8,25.7
				c-0.2-8.5-2.5-16.2-7.3-18.2c-12.5,6.8-28.1,4.7-37.3,2.7c-13.8-3-18.3,4.8-18.3,10.5c0,8.6,2,22.3-2.9,25.1c0,0-2.7,2.2-2.3,8.9
				s2.6,15,2.6,15C663,192.8,654.5,156.8,668.8,141.8z"/>
			<path class="st33" d="M681.9,182.4c-1.9-11.5-13.7-10.1-16.3-4.1c-3.3,7.5,1.9,19.2,12.5,19.2
				C687.5,197.4,682.7,186.9,681.9,182.4z"/>
		</g>
		<path class="st7" d="M712,253.2c1.4-0.8,2.5-5.2,2.5-5.2l6.9,5.3c-2.7-5.2-6.5-13.3-6.5-13.3l-5.9-1l-25.9,2.1
			c-0.5,0.2-2.4,1.5-2.9,1.7c3.7,6.6,16.4,13.1,17.7,12.9l4-3l1.3,3l-3.6,83.7l10.7-1.1l5.6,2.1C716.8,301.1,712,253.2,712,253.2z"
			/>
		<path class="st36" d="M715.2,243.2c1.4,9.5-2.1,11.3-2.1,11.3s2.2,36.4,4.6,82.9l-15.7,2.1c-1.5-56.2,1.8-78.5,3.1-85
			c0,0-3.9-3.8-3.8-9.5c0.1-5.8,8.1-7,8.1-7L715.2,243.2z"/>
		<path class="st6" d="M714.6,233c-0.7,4.7-6.4,5.1-6.4,5.1l13.3,15.2C721.5,253.4,718.5,239.6,714.6,233z"/>
		<path class="st6" d="M688.2,230.7c7.3,9,20.1,7.5,20.1,7.5l-10.6,17.5c0,0-15.3-9-16.3-14.5L688.2,230.7z"/>
	</g>
	<path class="st7" d="M656.3,251.4c10,0.9,9.9,34.2,10.2,47.4C666.8,312,666,341,666,341l36-1.6v-2.9l-16.8-1.6
		c-5.1-0.5-9.2-4.5-9.7-9.6c-1.2-11.3-3.5-30.8-5.3-40.9c-2-11.1-3.7-30.7-12.8-33.6L656.3,251.4z"/>
	<path class="st7" d="M666,341c-8,0.2-13.7,2.5-13.7,2.5s7.5-6.5,14.8-6.2L666,341z"/>
	<path class="st7" d="M740.7,252.4c7,21.7,7.8,74.6,7.5,99.9l-15,0.7c0,0,8.5-27.1,8.7-60.6c0.1-17.2-0.2-34.2-3-40.9L740.7,252.4z"
		/>
	<path class="st7" d="M748.2,352.3c11.2,0,16.2,4.3,16.2,4.3s-10-9.9-17.3-10.3C739.7,346,748.2,352.3,748.2,352.3z"/>
	<path class="st33" d="M707.9,338.6c13.6,0.8,15.2,13.5,13.1,18c0,0,19.5-4.3,27.2-4.3c-0.1-0.8-0.7-6.5-2.3-8
		c-1.7-1.5-0.7-4.6-1.5-6.3c-0.8-1.7-3.5-3.2-5.7-4.5c-2.2-1.3-9.2-2.8-14-1C722.4,333.4,717.6,335.4,707.9,338.6z"/>
	<path class="st7" d="M721,356.7c-11.7,3.3-34.3,11-63.3,17.1c-0.1,0.9-0.2,3.9-0.2,3.9s63.4-20.4,71.8-22.7L721,356.7z"/>
	<path class="st7" d="M757.3,378.5c-11.9-0.7-78.8-8.5-78.8-8.5l-15.5,3.8l94.3,10.5V378.5z"/>
	<path class="st7" d="M718.5,358.2c-3.1,3.4-3.1,12.4,2.3,16.6c-1,0.3-43.1-4-43.1-4L718.5,358.2z"/>
	<path class="st34" d="M746.5,345.3L746.5,345.3c0.6,6-11.4,6.9-17.2,9.6h0c6.3-1.2,14.5-2.6,18.9-2.6
		C748.1,351.6,747.7,347.5,746.5,345.3z"/>
	<path class="st36" d="M702,372.7c0,0-0.5,11.3,0,15.7c0.5,4.3,5.9,17.6,8.2,17.1c2.3-0.5,9.6-13,9.6-16.4c0-0.9,0-14.2,0-14.2
		L702,372.7z"/>
	<polygon class="st35" points="743.1,417.7 743.8,429.8 748.8,429.1 748.1,417.1 	"/>
	<path class="st35" d="M692,432.1c0-0.7,0-12.6,0-12.6l-4.7-0.3v12.7L692,432.1z"/>
	<polygon class="st35" points="661.3,416.1 660.3,428.6 655.7,427.6 656.8,415.3 	"/>
	<g>
		<g>
			<path class="st5" d="M719.6,422c0.8,0,1.5,0.6,1.5,1.5l0.2,4.3c0,0.4-0.1,0.8-0.4,1.1c-0.3,0.3-0.7,0.5-1.1,0.5l-9.2,0.3l-0.1,0
				c-0.8,0-1.5-0.6-1.5-1.5l-0.2-4.3c0-0.4,0.1-0.8,0.4-1.1c0.3-0.3,0.7-0.5,1.1-0.5L719.6,422L719.6,422 M719.6,419.6
				c-0.1,0-0.1,0-0.2,0l-9.2,0.3c-2.2,0.1-3.9,1.9-3.8,4.1l0.2,4.3c0.1,2.1,1.8,3.8,4,3.8c0.1,0,0.1,0,0.2,0l9.2-0.3
				c2.2-0.1,3.9-1.9,3.8-4.1l-0.2-4.3C723.5,421.3,721.7,419.6,719.6,419.6L719.6,419.6z"/>
		</g>
	</g>
	<line class="st37" x1="721.8" y1="425.7" x2="725" y2="425.6"/>
	<g>
		<path class="st38" d="M709.2,180c0.1,2.6-1.2,4.7-3,4.8c-1.8,0.1-3.3-1.9-3.5-4.5c-0.1-2.6,1.2-4.7,3-4.8
			C707.6,175.4,709.1,177.4,709.2,180z"/>
		<g>
			<g>
				<g>
					<g>
						<path class="st35" d="M701.3,170.3c-1.4,0.2-2.4,0.5-2.8,0c-0.3-0.5,0.1-1.5,1.5-2.5c3.9-2.8,13.5-3,13.1-0.3
							C712.9,169.6,709.7,168.8,701.3,170.3z"/>
					</g>
				</g>
			</g>
		</g>
		<g>
			<g>
				<g>
					<g>
						<path class="st35" d="M741.8,167.8c1.3,0.7,2.1,1.6,1.8,2.1c-0.9,1.2-5.4,0.3-7.3,0.1c-1.9-0.2-4.4-0.4-4.3-0.4
							c-2.7,0-3.2-3.6,3.8-3.3C738.5,166.5,740.5,167.1,741.8,167.8z"/>
					</g>
				</g>
			</g>
		</g>
		<path class="st39" d="M710.1,207.2c0,0,12.1,5.5,20.8-1.2"/>
		<g>
			<g>
				<path class="st40" d="M725.3,194.1c-0.4,0.4-1.9,1.1-3.5,1.4c-1.7,0.3-3.6,0.1-4.1-0.2"/>
			</g>
		</g>
		<path class="st38" d="M738.2,179.7c0.1,2.6-1.2,4.7-3,4.8c-1.8,0.1-3.3-1.9-3.5-4.5c-0.1-2.6,1.2-4.7,3-4.8
			C736.5,175.2,738,177.2,738.2,179.7z"/>
	</g>
</g>
<g>
	<path class="st22" d="M1252.4,636l40.5-190.6c1.1-5.2,6.2-8.6,11.5-7.5h86.3c5.2,1.1,4.3,6.2,3.2,11.5l-42.8,203
		c-1.4,6.7-7.3,11.5-14.1,11.5h-179.3c-6.6,0-12-5.4-12-12l0,0c0-6.6,5.4-12,12-12h89.9C1249.8,640,1251.9,638.3,1252.4,636z"/>
	<path class="st41" d="M1387.6,444h-86.3c-3.2-0.7-6.5,0.3-8.7,2.5l0.2-1c1.1-5.2,6.2-8.6,11.5-7.5h86.3
		C1395.8,439.1,1392.8,445.1,1387.6,444z"/>
	<path class="st41" d="M1341.4,636l40.5-190.6c1.1-5.2,6.2-8.6,11.5-7.5l0,0c5.2,1.1,8.6,6.2,7.5,11.5l-42.8,203
		c-1.4,6.7-7.3,11.5-14.1,11.5h-97.3c-6.6,0-12-5.4-12-12l0,0c0-6.6,5.4-12,12-12h89.9C1338.8,640,1340.9,638.3,1341.4,636z"/>
	<g>
		<circle class="st2" cx="1328.6" cy="793" r="13"/>
		<circle class="st42" cx="1328.6" cy="793" r="8"/>
		<path class="st42" d="M1341.6,793c0,1.8-0.4,3.5-1,5h-24c-0.6-1.5-1-3.2-1-5c0-3,1-5.8,2.8-8h20.5
			C1340.6,787.2,1341.6,790,1341.6,793z"/>
	</g>
	<g>
		<circle class="st2" cx="1198.6" cy="793" r="13"/>
		<circle class="st42" cx="1198.6" cy="793" r="8"/>
		<path class="st42" d="M1211.6,793c0,1.8-0.4,3.5-1,5h-24c-0.6-1.5-1-3.2-1-5c0-3,1-5.8,2.8-8h20.5
			C1210.6,787.2,1211.6,790,1211.6,793z"/>
	</g>
	<g>
		<circle class="st2" cx="1263.6" cy="793" r="13"/>
		<circle class="st42" cx="1263.6" cy="793" r="8"/>
		<path class="st42" d="M1276.6,793c0,1.8-0.4,3.5-1,5h-24c-0.6-1.5-1-3.2-1-5c0-3,1-5.8,2.8-8h20.5
			C1275.6,787.2,1276.6,790,1276.6,793z"/>
	</g>
	<path class="st2" d="M1198.6,774h54v-68c-8.3-0.3-15-7.1-15-15.5V664h54v9h16.6c2.4,0,4.4,2,4.4,4.4v2.2c0,2.4-2,4.4-4.4,4.4h-16.6
		v6.4c0,8.6-7,15.6-15.6,15.6h-1.4v68h54c9.9,0,18,8.1,18,18l0,0h-166l0,0C1180.6,782.1,1188.7,774,1198.6,774z"/>
	<path class="st42" d="M1237.6,690.4V664h54v9h16.6c2.4,0,4.4,2,4.4,4.4v2.2c0,2.4-2,4.4-4.4,4.4h-16.6v6.4c0,8.6-7,15.6-15.6,15.6
		h-1.4v47l-22-14.2V706C1244.3,705.7,1237.6,698.8,1237.6,690.4z"/>
</g>
<g>
	<path class="st22" d="M338.2,636l-40.5-190.6c-1.1-5.2-6.2-8.6-11.5-7.5H200c-5.2,1.1-4.3,6.2-3.2,11.5l42.8,203
		c1.4,6.7,7.3,11.5,14.1,11.5H433c6.6,0,12-5.4,12-12l0,0c0-6.6-5.4-12-12-12h-89.9C340.8,640,338.7,638.3,338.2,636z"/>
	<path class="st41" d="M203,444h86.3c3.2-0.7,6.5,0.3,8.7,2.5l-0.2-1c-1.1-5.2-6.2-8.6-11.5-7.5H200
		C194.8,439.1,197.8,445.1,203,444z"/>
	<path class="st41" d="M249.2,636l-40.5-190.6c-1.1-5.2-6.2-8.6-11.5-7.5l0,0c-5.2,1.1-8.6,6.2-7.5,11.5l42.8,203
		c1.4,6.7,7.3,11.5,14.1,11.5H344c6.6,0,12-5.4,12-12l0,0c0-6.6-5.4-12-12-12h-89.9C251.8,640,249.7,638.3,249.2,636z"/>
	<g>
		<circle class="st2" cx="262" cy="793" r="13"/>
		<circle class="st42" cx="262" cy="793" r="8"/>
		<path class="st42" d="M249,793c0,1.8,0.4,3.5,1,5h24c0.6-1.5,1-3.2,1-5c0-3-1-5.8-2.8-8h-20.5C250,787.2,249,790,249,793z"/>
	</g>
	<g>
		<circle class="st2" cx="392" cy="793" r="13"/>
		<circle class="st42" cx="392" cy="793" r="8"/>
		<path class="st42" d="M379,793c0,1.8,0.4,3.5,1,5h24c0.6-1.5,1-3.2,1-5c0-3-1-5.8-2.8-8h-20.5C380,787.2,379,790,379,793z"/>
	</g>
	<g>
		<circle class="st2" cx="327" cy="793" r="13"/>
		<circle class="st42" cx="327" cy="793" r="8"/>
		<path class="st42" d="M314,793c0,1.8,0.4,3.5,1,5h24c0.6-1.5,1-3.2,1-5c0-3-1-5.8-2.8-8h-20.5C315,787.2,314,790,314,793z"/>
	</g>
	<path class="st2" d="M392,774h-54v-68c8.3-0.3,15-7.1,15-15.5V664h-54v9h-16.6c-2.4,0-4.4,2-4.4,4.4v2.2c0,2.4,2,4.4,4.4,4.4H299
		v6.4c0,8.6,7,15.6,15.6,15.6h1.4v68h-54c-9.9,0-18,8.1-18,18l0,0h166l0,0C410,782.1,401.9,774,392,774z"/>
	<path class="st42" d="M353,690.4V664h-54v9h-16.6c-2.4,0-4.4,2-4.4,4.4v2.2c0,2.4,2,4.4,4.4,4.4H299v6.4c0,8.6,7,15.6,15.6,15.6
		h1.4v47l22-14.2V706C346.3,705.7,353,698.8,353,690.4z"/>
</g>
<g>
	<path class="st22" d="M611.4,636l-15.2-190.6c-0.5-5.2-5.2-8.6-10.5-7.5H484.4c-5.4,1.1-5.1,6.2-4.6,11.5l16.7,203
		c0.9,6.7,21.4,11.5,28.2,11.5H634c6.6,0,12.4-5.4,12.9-12l0,0c0.5-6.6-4.4-12-11.1-12H616C613.6,640,611.7,638.3,611.4,636z"/>
	<path class="st41" d="M485.7,444h102.3c3.3-0.7,6.4,0.3,8.4,2.5l-0.1-1c-0.5-5.2-5.2-8.6-10.5-7.5H483.4
		C478.1,439.1,480.3,445.1,485.7,444z"/>
	<path class="st41" d="M507.4,636l-15.2-190.6c-0.5-5.2-5.2-8.6-10.5-7.5l0,0c-5.4,1.1-9.3,6.2-8.9,11.5l16.7,203
		c0.9,6.7,6.4,11.5,13.2,11.5H523c6.6,0,12.4-5.4,12.9-12l0,0c0.5-6.6-4.4-12-11.1-12H512C509.6,640,507.7,638.3,507.4,636z"/>
	<g>
		<circle class="st2" cx="513" cy="793" r="13"/>
		<circle class="st42" cx="513" cy="793" r="8"/>
		<path class="st42" d="M500,793c0,1.8,0.4,3.5,1,5h24c0.6-1.5,1-3.2,1-5c0-3-1-5.8-2.8-8h-20.5C501,787.2,500,790,500,793z"/>
	</g>
	<g>
		<circle class="st2" cx="643" cy="793" r="13"/>
		<circle class="st42" cx="643" cy="793" r="8"/>
		<path class="st42" d="M630,793c0,1.8,0.4,3.5,1,5h24c0.6-1.5,1-3.2,1-5c0-3-1-5.8-2.8-8h-20.5C631,787.2,630,790,630,793z"/>
	</g>
	<g>
		<circle class="st2" cx="578" cy="793" r="13"/>
		<circle class="st42" cx="578" cy="793" r="8"/>
		<path class="st42" d="M565,793c0,1.8,0.4,3.5,1,5h24c0.6-1.5,1-3.2,1-5c0-3-1-5.8-2.8-8h-20.5C566,787.2,565,790,565,793z"/>
	</g>
	<path class="st2" d="M643,774h-54v-68c8.3-0.3,15-7.1,15-15.5V664h-54v9h-16.6c-2.4,0-4.4,2-4.4,4.4v2.2c0,2.4,2,4.4,4.4,4.4H550
		v6.4c0,8.6,7,15.6,15.6,15.6h1.4v68h-54c-9.9,0-18,8.1-18,18l0,0h166l0,0C661,782.1,652.9,774,643,774z"/>
	<path class="st42" d="M604,690.4V664h-54v9h-16.6c-2.4,0-4.4,2-4.4,4.4v2.2c0,2.4,2,4.4,4.4,4.4H550v6.4c0,8.6,7,15.6,15.6,15.6
		h1.4v47l22-14.2V706C597.3,705.7,604,698.8,604,690.4z"/>
</g>
<g>
	<g>
		<defs>
			<path id="XMLID_62_" d="M498.3,787.2c6,2,8,5,21,7c3.6,0.5,4.1,12,0,12c-2,0-29,0-33,0c-7,0-17-11-26-11v11h-17c0,0-7-22-4-38
				C439.3,768.2,454.3,780.2,498.3,787.2z"/>
		</defs>
		<use xlink:href="#XMLID_62_"  style="overflow:visible;fill:#3D303E;"/>
		<clipPath id="XMLID_20_">
			<use xlink:href="#XMLID_62_"  style="overflow:visible;"/>
		</clipPath>
		<path class="st43" d="M523.3,803.2c-28,0-35,1-40-2s-17-11-25-11s-26,0-26,0l11,24l80-3V803.2z"/>
	</g>
	<path class="st33" d="M467,758.7c2.4,11.5,31.4,28.5,31.4,28.5c-7,0-55-11-59-19L467,758.7z"/>
	<g>
		<defs>
			<path id="XMLID_61_" d="M447.3,787.2c6,2,8,5,21,7c3.6,0.5,4.1,12,0,12c-2,0-29,0-33,0c-7,0-17-11-26-11v11h-17c0,0-7-22-4-38
				C388.3,768.2,403.3,780.2,447.3,787.2z"/>
		</defs>
		<use xlink:href="#XMLID_61_"  style="overflow:visible;fill:#3D303E;"/>
		<clipPath id="XMLID_21_">
			<use xlink:href="#XMLID_61_"  style="overflow:visible;"/>
		</clipPath>
		<path class="st44" d="M472.3,803.2c-28,0-35,1-40-2s-17-11-25-11s-26,0-26,0l11,24l80-3V803.2z"/>
	</g>
	<path class="st33" d="M415.6,757c2.4,11.5,31.7,30.2,31.7,30.2c-7,0-55-11-59-19L415.6,757z"/>
	<path class="st33" d="M387.3,592.5c0.7,0,11.3-1.4,22.8-1.4c16.4,0,26.1,13,30.1,31l28.5,146h-29.5
		c-11.2-64.6-39.6-90.8-38.2-126.5h-26.7C374.3,639,334.8,588.8,387.3,592.5z"/>
	<path class="st34" d="M416.3,632.2c-2-32.7-12.2-37.5,6.3-38c-3.6-1.9-7.8-3-12.5-3c-7,0-13.7,0.5-18,0.9l-14.8,48.1h19.8h3.4
		c0,0.5,0,1,0,1.5h0.5c-0.1,2.6,0,5.1,0.2,7.5c0.8,4.7,2,9.8,3.2,15c3.2,9.8,7.3,22.8,12.8,34C417,679.7,417.1,644.6,416.3,632.2z"
		/>
	<path class="st33" d="M360.6,592.5c0.8,0,14.3,0,27.5,0c13.9,0,22.2,8.7,23.5,34.4l4,136.3l-27.3,4.9c-2-53-18.3-79.5-20-126.5H315
		C314.9,639,308.1,588.8,360.6,592.5z"/>
	<path class="st34" d="M385.5,596.7c3.3-1,4.6-2.5,4.3-4.1c-0.6,0-1.1-0.1-1.7-0.1c-13.1,0-26.7,0-27.5,0c-0.7,0-1.3-0.1-1.9-0.1
		c-1.7,2.6-2.9,6-3.4,10.3c-3.1,26.6-1.3,35.6,1.7,38.9h7.4C363.7,621.1,367.2,602.2,385.5,596.7z"/>
	<path class="st1" d="M272.3,615.7L272.3,615.7c-1.3,13.9,9.6,26,23.6,26h66.2c-0.8-6.9-9.8-49.1,56.6-49.8
		c-8.5-1.9-21.2-3.9-35.4-3.7c-71.1,0-82.9-0.1-90,6C281.6,604.3,272.3,615.7,272.3,615.7z"/>
	<path class="st2" d="M312.2,623.3c-31.5-0.1-27.1-28.6,1.3-32.9c-0.9-0.4-28.6,1.1-34.4,9c-8.1,8.1-6.8,16.3-6.8,16.3v0
		c-1.3,13.9,9.6,26,23.6,26h66.2c-1-4.8-1-12,0.1-18.5C362.3,623.2,320.4,623.4,312.2,623.3z"/>
	<path class="st32" d="M356.5,352.2c3-26-17.2-40.8-32.8-41.8c-40.1-2.6-53.3,13.1-52.1,57.9c1.2,45.2-5,87.6-2,86.5
		c2.9-1.1,55.1-15.3,59.2-15.5c11.8-0.5,7.7-39.3,9.8-52.1C342.6,362.7,353.8,353.3,356.5,352.2z"/>
	<path class="st6" d="M384.8,521.9L384.8,521.9c-20.5-64.9-27.2-89.2-59-95l23.5,120.4l32.1-6.3c-0.6,3.4-1,6-1,6.3
		c0,0.9,28.3,2,28.3,2l5.5-19.8C414.1,529.4,394.3,524.2,384.8,521.9z"/>
	<path class="st7" d="M350.5,454.8c4.7,4.5,9.9,26.7,10.9,33.2c2.4,16.1,0.1,22.4,5.6,28.1c2.2,2.3,10.1,2.1,17.7,5.7
		c-13.1-1-13.5,8.9-12.3,17.3l-23.2,10L350.5,454.8z"/>
	<path class="st6" d="M358.2,523.3c10.4-15.3,12.5-33-0.4-50c-6.5-6.9-7.5-42.1-34.5-47.1l-27-2c-26,7-41,18-34,71
		c4.6,16.4,8.5,37.6,9.1,44.4c1.2,13.5-0.3,38.3,0.8,76.1c3-13.8,19-22.5,45-24.5c20-1.5,48-3,48-3
		C361.3,558.2,357.4,549.9,358.2,523.3z"/>
	<g>
		<g>
			<path class="st33" d="M322.4,407.3c0.2,4.7,1.2,26.3,0.9,19.1c2.3,1.6,12.1,14.8-2.9,15.8c-15.3,1-23.5-17.8-23.5-17.8l-1-29.4
				L322.4,407.3z"/>
			<path class="st34" d="M322.9,419.4c-9.7,0-18.7-10.1-18.8-16.1l18.8,8.9L322.9,419.4z"/>
			<path class="st33" d="M278,364.8c3.5-3.2,10.6-0.8,13.4,7.7c2.7,0,3.7-2.4,4-14.1c0.1-3.4,2.6-6.3,6-6.9
				c16.3-2.9,36.8-13.6,38.4-22.8c4.5,13.2,8.3,19,16.6,23.4c-0.3,22.3,0,14.8-0.2,24.1c-0.2,18-9.8,37.8-29.4,37.7
				c-20.4-0.1-33.7-15.4-36.3-28.2c0,0-6,3.2-12.1-3.2C274.3,378.3,274.3,368.3,278,364.8z"/>
		</g>
	</g>
	<path class="st7" d="M358.2,523.3c5.3-7.8,8.4-16.2,8.5-24.8c-2.4,3-16.4,5.5-29.3,5.9c-6.7,0.2-24.6,1.7-36.2-3.9
		c-4.1-2-8-4.3-8.7-8.8c-1.4-8.1-1.8-20.5-3.1-24.6l-5.8,18c0.1-3.3-0.1-5.5-0.2-6.5c-0.4,3.9-6,23.6-6,23.6s-6,13.2-8.4,21.4
		c1.3,7,2.3,12.9,2.5,15.9c0.1,0.6,0.1,1.3,0.1,1.9c2.3-6.7,4.1-12.9,5.6-18.5c9.7,1.6,39,2.7,57,2
		C341,524.8,352.4,525.1,358.2,523.3z"/>
	<path class="st7" d="M358.1,540.5c-1.6-0.1-3.8-0.5-5.7-0.5c-32.5,0.2-66-14.9-67.8-20.7c0,0-13.4-1.9-15.5,4.5
		c1.3,7,2.3,12.9,2.5,15.9c0.1,0.7,0.1,1.5,0.2,2.3c1.1,13.6-0.5,36.3,0.7,73.8c2.2-10.4,14.5-17.6,28.3-22
		c-6.4-0.7-9.2-9.7-10.3-22.6c-0.3-4,2.7-7.4,6.7-7.6c14.2-0.6,34.8,1.6,37.3,26.5c15.9-1,31-1.8,31-1.8
		C362,563.1,358.6,558.5,358.1,540.5z"/>
	<path class="st7" d="M334.3,523.2c2-33,2-29,2-29s8.6-14.2,4.5-22.7c-4.1-8.5-13.7-26.1-13.7-26.1l8.1,8.3c0,0-6.4-21.1-9.4-26.9
		l-8.5-0.6l-26.8-0.7c-0.6,0.2-1.6,0.5-2.2,0.7c0,0-0.4,0.6-0.4,0.6l-0.1,0c5.5,14.4,22,29.3,22,29.3l2.7-12.2l4.8,4.3
		c0,0-8,18-6,25s10,17,20,22c0,0,3,1,2,7c-2,12-2.4,22.8-2.4,22.8s0.3,48.8,4.1,64.9c1.2-0.1,2.4-0.2,3.6-0.2
		C336.9,578.8,332.7,549.7,334.3,523.2z"/>
	<path class="st36" d="M313.3,441.2c4.1,5,6.1,5,6.1,5s-8,23-5,30s20,18,20,18s11-15,9-21c-5-15-17-29-17-29s4.2-5.1,2.1-8
		c-2.1-3-6-8.6-11.1-10C311.3,428.2,313.3,441.2,313.3,441.2z"/>
	<path class="st45" d="M296.6,417.4c10,8,20.8,8.8,20.8,8.8l-7,27c0,0-19.4-18.7-21.2-26.8C289.3,426.2,296.6,417.4,296.6,417.4z"/>
	<path class="st45" d="M323.1,422.1c-2.7,4.1-5.7,4.1-5.7,4.1l17,24C334.3,450.2,330.3,432.2,323.1,422.1z"/>
	<path class="st34" d="M407.9,531.7c-2.5,4.9-8.5,7.5-3.7,13.6h5.6L407.9,531.7z"/>
	<path class="st33" d="M409.8,545.3c-2.6,0-4.9-2.6-4.4-5.1c1.3-5.9,3.2-11.9,5.4-13.3c2.8-1.8,5.7,0.3,7.5-1.1
		c1.8-1.4,2.7-2.7,5.3-2c2.7,0.7,4.5,2.7,6.5,2.9c2,0.1,3-0.7,5.5,2c2.5,2.7-6.7,16.9-6.7,16.9L409.8,545.3z"/>
	<path class="st34" d="M411.4,545.3c1.2-7.6,5.6-16.7,6.5-15.8c0,0-5.2,9.1-4.8,15.9L411.4,545.3z"/>
	<path class="st34" d="M420.8,545.3c1.4-6.1,3.9-17.5,4.8-16.7c0,0-2.3,9.6-2.8,16.6L420.8,545.3z"/>
	<path class="st33" d="M352.3,536.6c8-3,28-10.4,36-8.4c4.9,1.2,12.6,9,13,11c0.6,2.9-0.9,6-5.9,6c-2,0-33.5,9.2-39.5,9.2
		c-5,0-7.2,0-7.2,0S331.3,540.6,352.3,536.6z"/>
	<path class="st34" d="M368.3,536c13,2,20,6,18,9C386.3,545,397.3,539,368.3,536z"/>
	<path class="st34" d="M395.5,545.2c-3-8-6.1-15-21.1-14C374.3,531.2,397.5,528.2,395.5,545.2z"/>
	<path class="st6" d="M288.3,426.2c-30.7,11.2-31.1,22.4-28.6,103.9c0.3,10.7,9,19.3,19.7,19.6l69.3,4.8c0,0-6.7-11.3,3.6-17.8
		l-63-15.4v-53L288.3,426.2z"/>
	<path class="st7" d="M289.3,521.2c-12-2-17-1-17-1s6-4,17-4V521.2z"/>
	<path class="st7" d="M271.8,434.6c12.6,6.5,16.6,24.5,17.6,41.5l1.1,1.7c0,0,2.1-33.6-17.5-44.1L271.8,434.6z"/>
	<path class="st7" d="M336.1,429.7c11.2,12.5,16.2,30.4,16.2,30.4l1-0.7c0,0-5.9-20.6-15.5-28.9L336.1,429.7z"/>
	<g>
		<path class="st46" d="M340.4,392.9l-4.5-1.7c-0.9-0.4-1.9-0.4-2.9-0.4h-3.4c-0.7,0-1.3,0-2,0.2l-7.8,2.1c1.5,1.6,9,1.6,11.6,2
			C333.5,394.7,338.1,394.5,340.4,392.9z"/>
		<path class="st46" d="M340.4,392.9c-1.7,1.2-4.9,1.6-8.7,1.7c-3.8-0.1-10.1-0.2-11.8-1.7c0,0,3.1,5.8,11.7,5.8
			C339.4,398.8,340.4,392.9,340.4,392.9z"/>
	</g>
	<g>
		<g>
			<g>
				<g>
					<path class="st47" d="M342.3,356.3c-1.1-0.2-2-0.4-2.1-0.9c0-0.5,0.4-1.4,1.6-1.7c5.2-1.2,11.4,2.5,9.8,3.9
						c-0.9,0.9-3.2-0.2-4.8-0.5C346.1,357,345.9,356.9,342.3,356.3z"/>
				</g>
			</g>
		</g>
	</g>
	<g>
		<path class="st48" d="M333.5,368.5c2.3,5.1,5.7,9.2,5.7,10.3c0,1.2-1.8,3.4-5.1,5.1"/>
		<line class="st48" x1="329.2" y1="383.9" x2="327.7" y2="382.9"/>
	</g>
	<g>
		<g>
			<g>
				<g>
					<path class="st47" d="M308.9,357.9c-0.4,0.1-0.7,0.1-0.9,0c-0.8-0.7,1.8-3.8,8.1-4.5c1.6-0.2,3.4,0,4.7,0.6
						c0.8,0.4,1.3,1.2,1.2,1.7C321.4,357.2,318.4,355.6,308.9,357.9z"/>
				</g>
			</g>
		</g>
	</g>
	<g>
		<path class="st49" d="M318.6,361c0.6,0,1,0.6,0.7,1.1c-0.2,0.5-0.6,1.2-0.6,1.2s0.5,1.5,0.5,3c0,3.6-1.6,4.9-3.7,4.9
			c-2.3,0-3.8-2.3-3.8-5.1c0-3.2,2-5.1,4.7-5.1H318.6z"/>
	</g>
	<g>
		<path class="st49" d="M346.6,361c0.6,0,1,0.6,0.7,1.1c-0.2,0.5-0.6,1.2-0.6,1.2s0.5,1.5,0.5,3c0,3.6-1.7,4.9-3.7,4.9
			c-2.3,0-3.8-2.3-3.8-5.1c0-3.2,2-5.1,4.7-5.1H346.6z"/>
	</g>
</g>
<g>
	<path class="st50" d="M870.5,795.6c0,0.1,1,10.6,1,10.6l5.8-0.1l1-16.2L870.5,795.6z"/>
	<path class="st42" d="M884.8,784.8c0,2.6-4,8.2-3.5,21.3h-5l-1-21.3C879.3,782,882.4,782,884.8,784.8z"/>
	<path class="st42" d="M849.2,769.4c-3.3,4.1-7.1,12.2-10.8,16.9c-3.7,4.7-7.2,8-7.2,12c0,6.5,1.8,7.8,10.5,7.8
		c7,0,14.8-0.1,20.8-0.1c13.2,0,11.9-23.3,22.3-21.2c1.3-7.5-2-16.8-3.5-25.5L849.2,769.4z"/>
	<path class="st51" d="M839.4,625.5c3.6,28.8,16.3,123.5,14.3,132.8c-2,9.3-12.3,23.2-9.7,28.2c1.2,2.2,3.8,0,14.2,1.8
		c7.6,1.3,18-12.5,23.2-29c0-15.8,4.3-128.4,4.3-135.3L839.4,625.5z"/>
	<path class="st50" d="M934,795.6c0,0.1,0.1,10.6,0.1,10.6l-5.8-0.1l-2.7-16.2L934,795.6z"/>
	<path class="st42" d="M918.6,784.8c0.3,2.6,4.9,8.2,5.7,21.3h5l-1.2-21.3C923.8,782,920.7,782,918.6,784.8z"/>
	<path class="st42" d="M952.6,769.4c3.7,4.1,8.4,12.2,12.6,16.9c4.2,4.7,8,8,8.4,12c0.7,6.5-1,7.8-9.7,7.8c-7,0-14.8-0.1-20.8-0.1
		c-13.2,0-14.3-23.3-24.5-21.2c-2.1-7.5,0.2-16.8,0.8-25.5L952.6,769.4z"/>
	<path class="st51" d="M945.7,608.5c-0.6,28.8-1.7,140.5,1.2,149.8c3,9.3,14.7,23.2,12.6,28.2c-0.9,2.2-3.8,0-14,1.8
		c-7.4,1.3-19.3-12.5-26.2-29c-1.7-15.8-17.7-128.4-18.4-135.3L945.7,608.5z"/>
	<path class="st1" d="M832,382.5c-10.9,38.8-15.5,89,7.5,242c0,0,33,14.5,109,0c-1.5-120-32.8-246-32.8-246L832,382.5z"/>
	<path class="st1" d="M832,382.5c-10.9,38.8-12,104.3,2.1,241.5c0,0,38.3,15,114.3,0.5c-1.5-120-25.4-246-25.4-246L832,382.5z"/>
	<path class="st2" d="M896.3,494.5c12.2-1.8,18.4-14,22.4-14c3,0,15-1.1,19.3-1.5c-2.9-18.5-9.3-70.6-13.7-93.6l-100.8,51.5
		c-0.8,15.8-0.6,34.8,0.9,58.6c11,1,27.5-1.8,33.5-11.8h19.6C877.6,483.8,884.1,496.3,896.3,494.5z"/>
	<path class="st2" d="M854.6,386.8c-0.4,1.2,0,20.2,0,20.2l-10.2,1.3l2.6-26.5L854.6,386.8z"/>
	<polygon class="st2" points="888.7,387.6 887.3,408.3 893.8,407 893.8,386.3 	"/>
	<path class="st2" d="M834.2,624c0,0,38.3,15,114.3,0.5c-0.3-20-1.1-40.2-2.4-60H828.6C830.1,582.7,831.9,602.5,834.2,624z"/>
	<path class="st42" d="M867.4,142.6c9.1-6.8,17.3-1.8,19.6,2.8c0,0,13.5-8.9,20.1,6.4c0,0,13.9,0.2,11.7,14.3
		c0,0,13.8,6.8,10.9,24.6c0,0,21.3,8.4,9.1,33.8c0,0,14.1,8.3,2.7,22.3c17.7,6.4,5.2,26.7,5.2,26.7c6.9,16.1-3.3,28.9-15.6,25.6
		c-12.4-3.3-89.3,4.6-104.6,3.4c-20.2-1.5-24-27-15.5-34c-10.3-7-0.8-16.2,1.9-16.5c-12.2-8.6-5.3-21.7,1.9-25.7
		c-4.8-6.7-5.4-18.3,3.5-24.1c-3.1-8.7,5-16.8,10.3-15.1c-3.1-11.5,1.4-18,8.3-21.4c-1.5-9.1,6.2-17.4,13.3-16.8
		C850.3,143,861.3,136.8,867.4,142.6z"/>
	<path class="st52" d="M844.3,180c10.3-29.5,56.8-31,65.5,3.8C909.8,145.5,848.5,143,844.3,180z"/>
	<rect x="920.2" y="405.5" class="st3" width="5.8" height="66"/>
	<rect x="808.4" y="405.5" class="st4" width="111.8" height="66"/>
	<path class="st8" d="M852.5,405.5c-2.5,0-2,41.1-2,41.1s6.3,13.2,5.8,24.9h-9.7l-7.2-33l5.3-33H852.5z"/>
	<path class="st8" d="M913.7,471.5h6.6v-66h-8.1C912.2,405.5,904.5,446.8,913.7,471.5z"/>
	<rect x="921.8" y="405.5" class="st7" width="2.5" height="64"/>
	<path class="st53" d="M842.9,447.9c5.8,2.6,8.1,8.3,8.6,11.8s2,17.5,0,18.8s-6,1.3-6,1.3s-2.5,7.8-4.8,8s-7.5-1-7-4.3
		c0,0-5.8,0.3-8.3,0s-3-2.5-5.5-2.8s-6-3-6.3-6.5s2.6-26.3,7.4-28.8C826,443,842.9,447.9,842.9,447.9z"/>
	<path class="st53" d="M886.5,447.9c-5.8,2.6-8.1,8.3-8.6,11.8s-2,17.5,0,18.8s6,1.3,6,1.3s2.5,7.8,4.8,8s7.5-1,7-4.3
		c0,0,5.8,0.3,8.3,0s3-2.5,5.5-2.8s6-3,6.3-6.5s-2.6-26.3-7.4-28.8S886.5,447.9,886.5,447.9z"/>
	<path class="st52" d="M821.2,446.6c10.8,9.1,18.4,5.5,21.7,1.3L821.2,446.6z"/>
	<g>
		<defs>
			<path id="XMLID_5_" d="M866.3,260.8c-3,0-4.6,3.5-8.6,5.7s-17.4,4.6-24.2,8.5c-15.5,9-12.4,50.5-13.5,171c0,0,10.4,6.3,24.3,1.5
				l4.3-61.9c0,0,28.2,6.7,43.6,2.9l-6.8,59c0,0,17,4.4,27.3,2.5c26.1-133,28.5-166.5,12.8-173.5c-10-4.5-21.2-9.4-26-11.4
				s-6.8-4.2-9.4-4.2C884.9,260.8,866.3,260.8,866.3,260.8z"/>
		</defs>
		<use xlink:href="#XMLID_5_"  style="overflow:visible;fill:#EBF9FF;"/>
		<clipPath id="XMLID_22_">
			<use xlink:href="#XMLID_5_"  style="overflow:visible;"/>
		</clipPath>
		<path class="st54" d="M850.3,318.5c1.3,14.8-1.7,67.1-1.7,67.1s5.7,5.7,6,3.9c0.3-1.8,0-24.5,0-24.5s25.8,3.5,36.5,0l-2.5,24.7
			l3.6-1.2l11.9-77.3c1.3-10.3,10.3-37.3,21.3-37.5l-4.5-1.3c0,0-15,9-19.8,39.3c-2.7,17-4.4,23.3-6.9,24.3
			c-6.4,2.6-13.9-1.9-17.8-4.8c-3.5,2-15.2,8.7-19.3,4.3c-2.5-2.7-4.2-4.6-4.2-17c0-16.5-11.5-43.7-23.5-47.7l-1.3,2.8
			C828,273.5,847,281.5,850.3,318.5z"/>
	</g>
	<g>
		<path class="st53" d="M864.6,265.1c0.3-1.6,0.3-7.6,0.3-11.9c0-2.6,0-4.5,0-4.5l4.9-0.4l21.5-1.5c0,0.2-0.1,0.4-0.1,0.6
			c-0.3,2.3-0.4,4.3-0.5,6c-0.2,5.8,0.1,8.2,0.3,11.5C902.3,296.2,852,293.3,864.6,265.1z"/>
		<path class="st51" d="M891.2,247.5c-0.3,2.3-0.4,4.3-0.5,6c-5.5,4.9-18.3,6-25.8-0.2c0-2.6,0-4.5,0-4.5l4.9-0.4L891.2,247.5z"/>
		<path class="st53" d="M846.7,205.6c-4.5-4.7-11.4-3.2-10.4,4.4c1.1,7.6,6.8,17.9,14.1,14.6C857.8,221.3,846.7,205.6,846.7,205.6z"
			/>
		<path class="st53" d="M906.7,205.6c4.5-4.7,11.4-3.2,10.4,4.4c-1.1,7.6-6.8,17.9-14.1,14.6C895.7,221.3,906.7,205.6,906.7,205.6z"
			/>
		<path class="st53" d="M843.3,192.5c0,0-5,60.6,34.8,60.6c39.8,0,31.3-63,31.3-63s-22-6.3-33.2-23.1l-7.7,8.2
			C861.4,182.8,852.8,188.7,843.3,192.5L843.3,192.5z"/>
	</g>
	<g>
		<g>
			<path class="st42" d="M864.2,201.2c0.6,0,1,0.8,0.7,1.4c-0.2,0.5-0.6,1.3-0.6,1.3s0.5,1.5,0.5,3c0,3.5-1.6,4.9-3.7,4.9
				c-2.3,0-3.7-2.5-3.7-5.2c0-3.2,2-5.2,4.6-5.2H864.2z"/>
		</g>
		<g>
			<path class="st42" d="M894.7,201.2c0.6,0,1,0.8,0.7,1.4c-0.2,0.5-0.6,1.3-0.6,1.3s0.5,1.5,0.5,3c0,3.5-1.6,4.9-3.7,4.9
				c-2.3,0-3.7-2.5-3.7-5.2c0-3.2,2-5.2,4.6-5.2H894.7z"/>
		</g>
	</g>
</g>
<g>
	<g>
		<defs>
			<path id="XMLID_7_" d="M1118,778c-10.3,11-27.2,11.9-33.3,13.5s-9.4,12-6.4,14.5h74.3c2.1,0,3.8-1.8,3.5-3.9l-2.9-25.7L1118,778z
				"/>
		</defs>
		<use xlink:href="#XMLID_7_"  style="overflow:visible;fill:#3D303E;"/>
		<clipPath id="XMLID_23_">
			<use xlink:href="#XMLID_7_"  style="overflow:visible;"/>
		</clipPath>
		<path class="st55" d="M1073.3,802.7c17.3,0.7,91.9-4.7,91.9-4.7l-4,14l-86.3-1.7L1073.3,802.7z"/>
		<path class="st55" d="M1109,780c18.7,12,54.5,8.9,54.5,5c0-4.9-5.7-14.4-5.7-14.4l-47.1,5.7L1109,780z"/>
		<path class="st56" d="M1107,779.1c8,7.7,9.8,12.9,9.8,12.9"/>
		<path class="st56" d="M1102.7,780c4.5,5.6,6,13,6,13"/>
		<path class="st56" d="M1100.3,783.4c0.9,4.4,2.1,9.6,2.1,9.6"/>
	</g>
	<g>
		<defs>
			<path id="XMLID_8_" d="M1275.9,603.7l0.2,8.6c0.3,15.3-12,27.8-27.2,27.8h-64.9l-27.3,143.3c0,0-25.6,1-42.9-3.3
				c-0.3-1,21.8-118.6,28.5-165.3c2.5-17.6,12-23.3,25.2-23.5l71.2-1.1C1253.3,589,1265.4,599.2,1275.9,603.7z"/>
		</defs>
		<use xlink:href="#XMLID_8_"  style="overflow:visible;fill:#3D303E;"/>
		<clipPath id="XMLID_24_">
			<use xlink:href="#XMLID_8_"  style="overflow:visible;"/>
		</clipPath>
		<path class="st57" d="M1187.1,613.7l-3.1,26.3l24.7,1.3l17.3-50.1C1225.9,591.2,1195.1,585.3,1187.1,613.7z"/>
	</g>
	<g>
		<defs>
			<path id="XMLID_6_" d="M1191.3,778c-10.3,11-27.2,11.9-33.3,13.5s-9.4,12-6.4,14.5h74.3c2.1,0,3.8-1.8,3.5-3.9l-2.9-25.7
				L1191.3,778z"/>
		</defs>
		<use xlink:href="#XMLID_6_"  style="overflow:visible;fill:#3D303E;"/>
		<clipPath id="XMLID_25_">
			<use xlink:href="#XMLID_6_"  style="overflow:visible;"/>
		</clipPath>
		<path class="st58" d="M1146.7,802.7c17.3,0.7,91.9-4.7,91.9-4.7l-4,14l-86.3-1.7L1146.7,802.7z"/>
		<path class="st58" d="M1182.3,780c18.7,12,54.5,8.9,54.5,5c0-4.9-5.7-14.4-5.7-14.4l-47.1,5.7L1182.3,780z"/>
		<path class="st59" d="M1180.4,779.1c8,7.7,9.8,12.9,9.8,12.9"/>
		<path class="st59" d="M1176,780c4.5,5.6,6,13,6,13"/>
		<path class="st59" d="M1173.6,783.4c0.9,4.4,2.1,9.6,2.1,9.6"/>
	</g>
	<path class="st2" d="M1334.3,603.7l0.2,8.6c0.3,15.3-12,27.8-27.2,27.8h-64.9L1230,783.3c0,0-25.6,1-42.9-3.3
		c-0.3-1,9.3-115.1,13.6-165.3c1.1-13.2,12-23.3,25.2-23.5l71.2-1.1C1311.7,589,1323.7,599.2,1334.3,603.7z"/>
	<path class="st1" d="M1257.9,428.1c-23,4.1-40.8,18.3-43.8,122.8l24.5,0.1c0,0-1.1,33.6-4.6,40.1c0,0,47.3-1,63.1-1
		c21.6,0,36.7,15.1,38,21.9c0,0-3.3-67-3.8-86s5.8-86.9-7.4-92C1294.5,422.5,1257.9,428.1,1257.9,428.1z"/>
	<path class="st2" d="M1242.9,459.3l13.6,6.5l-14,7.5c0,0,2.7,34.7,25.8,54.3l0.2,23.2c0,0-16.9,0.5-30.1,1.2
		c-0.4,7-2.5,43.5-5.7,49.3c0,0,40.4-1.4,62.7-1.4c0-8.7,0.1-26.3,0-31.7c-0.1-7.3,31.5-8,37.4-0.7l0,0c-0.7-17.3-1.3-34.1-1.5-41.7
		c0-1.6-0.1-3.5-0.1-5.7l-12.4-47.2c0,0-8.6-3.6-12-6.4l12-3.2c0,0,0.3-15.5-0.4-25c-0.1-2.1,0.7-4.8,2.2-5.8c0,0-8.3-2.6-10.5-2.9
		l-49.1-1.7h0.2c-3.4,0.8-5.9,3.1-7.5,6.2C1247.2,446.7,1242.9,459.3,1242.9,459.3z M1268.5,528.7c0.5-1.3,30.5-23.8,41.1-41.5
		l-5.2,37.4C1304.3,524.6,1268.1,529.9,1268.5,528.7z"/>
	<path class="st2" d="M1248.5,430.7l-1.9,0.9c0,0-7,15.9-10,49.1l0.1-0.7c-3.8,23.1-6.7,63.2-6.7,64c0,1,6.5,0,6.5,0
		s2.4-59.5,3.3-74C1240.7,455.5,1248.5,430.7,1248.5,430.7z"/>
	<g>
		<path class="st33" d="M1270.2,405.6c-0.2,4.7-1.5,26.3-1.2,19.1c-4.1,13.2,24.9,9.9,26.8-2l1-29.4L1270.2,405.6z"/>
		<path class="st34" d="M1269.5,417.6c9.7,0,18.8-10,19-16l-18.8,8.9L1269.5,417.6z"/>
		<g>
			<path class="st33" d="M1304.2,344.9c-4.1-20.4-30.5-19.2-47.9-17.9c-17.4,1.3-20.4,1.2-20.4,23.5c0.1,22.3,0,14.8,0,24.1
				c0.1,18,9.8,37.7,32.3,37.7c22.7,0,33.6-15.5,36.4-28.2C1304.6,384,1308.3,365.4,1304.2,344.9z"/>
			<g>
				<path class="st38" d="M1275.9,364.2c-0.1,2.6,1.2,4.8,3.1,4.9c1.8,0.1,3.4-2,3.6-4.6c0.1-2.6-1.2-4.8-3.1-4.9
					C1277.6,359.5,1276.1,361.6,1275.9,364.2z"/>
				<g>
					<g>
						<g>
							<g>
								<path class="st32" d="M1284.1,354.3c1.4,0.2,2.5,0.5,2.9,0c0.4-0.5-0.1-1.6-1.6-2.6c-4-2.8-13.9-3.1-13.5-0.3
									C1272.1,353.5,1275.4,352.7,1284.1,354.3z"/>
							</g>
						</g>
					</g>
				</g>
				<g>
					<g>
						<g>
							<g>
								<path class="st32" d="M1242.5,351.7c-1.4,0.7-2.2,1.6-1.8,2.1c0.9,1.2,5.5,0.3,7.5,0.1c2-0.2,4.5-0.4,4.4-0.4
									c2.8,0,3.2-3.7-3.9-3.4C1245.8,350.3,1243.8,351,1242.5,351.7z"/>
							</g>
						</g>
					</g>
				</g>
				<path class="st60" d="M1275,392.2c0,0-12.4,5.7-21.4-1.2"/>
				<g>
					<g>
						<path class="st61" d="M1259.4,378.7c0.4,0.4,1.9,1.1,3.6,1.4c1.8,0.3,3.7,0.1,4.2-0.2"/>
					</g>
				</g>
				<path class="st38" d="M1246.2,364c-0.1,2.6,1.2,4.8,3.1,4.9c1.8,0.1,3.4-2,3.6-4.6c0.1-2.6-1.2-4.8-3.1-4.9
					C1247.9,359.3,1246.3,361.3,1246.2,364z"/>
			</g>
		</g>
		<path class="st32" d="M1315.4,326.4c1.2-19.9-29.4-25.4-41.9-24.6c-12.6,0.8-15.9,3.6-21.1,5.5c-6.9,2.5-14.9-5.5-14.9-5.5
			c-1.5,6.5,3.8,13,3.8,13c-2.7,0.5-13-1.5-13-1.5c2.2,5.7,5.2,10.1,8.8,13.3c-5.9,7-1.1,22.6-1.1,22.6c0.2-8.5,2.5-16.2,7.3-18.2
			c12.5,6.8,28.1,4.7,37.3,2.7c13.8-3,18.3,4.8,18.3,10.5c0,8.6-2,22.3,2.9,25.1c0,0,2.7,2.2,2.3,8.9s-2.6,15-2.6,15
			C1321.6,380.8,1326.4,340.9,1315.4,326.4z"/>
		<path class="st33" d="M1302.3,366.9c1.9-11.5,13.7-10.1,16.3-4.1c3.3,7.5-1.9,19.2-12.5,19.2
			C1296.6,382,1301.5,371.4,1302.3,366.9z"/>
	</g>
	<path class="st6" d="M1266.1,422.5c-10.3,27.8-12,42-12,42s-1.6,52.4,12,52s22.9-13.1,30.6-52c7.7-38.9,5-40.3,5-40.3l-27-1.7
		H1266.1z"/>
	<path class="st7" d="M1261.6,427.8c0.2,9.5-0.3,11.5,1.3,12.5l7.7-8c0,0-0.6,7.2,0.7,7.9c0,0-15.4,37.6-11,72.4l3.6,5l13.6-85.8
		l8.5,11.4c0,0,7.5-2.9,10.7-7.1c0,0-8.1,49.3-22,74.8l1.8,3.8c0,0,15.3-32.8,19.8-48.8s5.5-41.6,5.5-41.6l-27-1.7
		C1272.1,422.7,1265.2,419.1,1261.6,427.8z"/>
	<path class="st36" d="M1268.9,427.8c-1.4,9.5,2.1,11.2,2.1,11.2s-8.3,19.9-10.7,66.4c-0.5,5.9,4.1,19.8,5.7,20.6
		c0,0,6.8-7.5,10.7-13c6.1-51.8,5.5-71.8,2.2-74c0,0,3.9-3.8,3.8-9.5c-0.1-5.8-8.1-7-8.1-7L1268.9,427.8z"/>
	<path class="st6" d="M1269.5,417.6c1.9,5.1,5.2,4.9,5.2,4.9l-10.2,13.5C1264.5,436,1265.5,420.2,1269.5,417.6z"/>
	<path class="st6" d="M1296,415.3c-7.3,9-21.3,7.2-21.3,7.2l11.8,17.8c0,0,15.3-9,16.3-14.5L1296,415.3z"/>
	<path class="st23" d="M1266.1,422.5c-20.4,52.6,0,103.5,0,103.5s-28.4-30.1-28.6-53.8l16.6-7.8l-15.6-7.6c0,0,4.9-12.9,10.1-22.2
		c2.7-4.8,6.9-8.4,12.1-10.3L1266.1,422.5z"/>
	<path class="st23" d="M1301.7,424.2c-5,29.1-15.2,78.6-35.6,101.8c0,0,31.9-19.3,45.9-48.8c0,0-13.5-11-12.8-11.3
		s17.4-4.3,17.4-4.3s0.5-15.2-0.6-24.6c-0.4-3.6-2.6-6.8-5.8-8.5L1301.7,424.2z"/>
	<path class="st33" d="M1264,523.7c-8.1,0.4-17.2,5.4-22.5,6c-5.3,0.5-12.3,1.1-16.7,3c-4.3,1.8-8.3,11.4-8.3,11.4h52
		C1273.3,543.4,1282.1,523.7,1264,523.7z"/>
	<path class="st34" d="M1254.5,535.6c-9.9,4-18.7,0.9-17,8.4h-1c0,0-2.5-5.9,5-6.8S1251.9,536.8,1254.5,535.6z"/>
	<path class="st34" d="M1230,544c-0.8-4.3,3.5-8.4,8.7-9.4c2.8-0.5,9.5-0.8,11.9-2.3c0,0-8.7,1.1-11.9,1.5
		c-4.7,0.5-12.7,4.8-10.3,10.1H1230z"/>
	<path class="st34" d="M1223.1,544c-1.3-13.1,21.5-13.6,21.5-13.6s-24.8-1.4-22.8,13.6H1223.1z"/>
	<path class="st34" d="M1264,523.7c8.2,3.9,7.1,11.9,3.6,20.3h2.5C1270.1,544,1277.8,523.7,1264,523.7z"/>
	<path class="st6" d="M1270.1,523.3l-6.4,0.3c0,0,13.3,1.6,4.8,20.4h1.6C1270.1,544,1283.5,531.7,1270.1,523.3z"/>
	<path class="st1" d="M1321.7,433.3c24.4,7,25.3,38.8,24.5,96.6c-0.2,11.4-10,20.2-21.3,19.2l-54.8-5c0,0,9.3-14.3,0-20.7l46.9-5.8
		l0.9-45.7C1326.6,463.3,1322.1,436,1321.7,433.3z"/>
	<g>
		<path class="st2" d="M1317.7,453.9c3.1-14.7,9-18.6,9-18.6l-1.5-0.7c0,0-5.4,4.1-7.6,13C1317.7,450.7,1317.7,451.2,1317.7,453.9z"
			/>
		<path class="st2" d="M1313.6,462.5c-0.7,4.4-1.6,9-1.6,13.9c0.4,0.3,0,0.9,0,0.9c-0.2,0.4-0.4,0.8-0.6,1.2c0,0,0,0,0,0l2.5-3.7
			c0.3-4.6,0.8-8.9,1.4-12.7C1314.6,462.3,1314.7,462.2,1313.6,462.5z"/>
	</g>
	<path class="st2" d="M1317,517.5c8.8-0.2,15.8,3.7,15.8,3.7s-4.9-5.7-15.8-6.4V517.5z"/>
	<path class="st62" d="M1323.7,556.5c-0.7,1.8,1.2,47.5,1.2,47.5"/>
</g>
<g>
	<g>
		<path class="st1" d="M520.3,423.8c-18.3,5.7-27.3,13.3-31.3,49.5c-4.2,37.3-7,77.7-7,77.7l137.3-0.1c-6.1-80.4-5.7-114.9-34-122.9
			C558,420.3,520.3,423.8,520.3,423.8z"/>
		<path class="st2" d="M518.5,424.4c-3.8,10.9-4.7,31.9-4.7,31.9l16.8,4.5l-16.8,9.8c0,0,17.7,32.8,42.7,51.3
			c0,1.5,2.1,29.2,2.1,29.2h2.4l-2.1-31.1c0,0,26.6-21.3,33.1-49.9c0,0-7.9-5.1-12.8-7.9l14.8-8.5c0,0-4-20.2-6.3-24.7l-2.4-0.8
			l-62.5-5.2L518.5,424.4z"/>
		<g>
			<path class="st63" d="M567,401.4c0.2,4.7,1.2,29.3,0.9,22.1c4.1,13.2-24.6,9.9-26.4-2l-1-32.4L567,401.4z"/>
			<path class="st34" d="M567.6,416.5c-9.7,0-18.8-13-19-19l18.8,8.9L567.6,416.5z"/>
			<g>
				<path class="st63" d="M533,340.8c4.1-20.4,30.5-19.2,47.9-17.9c17.4,1.3,20.4,1.2,20.4,23.5c-0.1,22.3,0,14.8,0,24.1
					c-0.1,18-9.8,37.7-32.3,37.7c-22.7,0-33.6-15.5-36.4-28.2C532.5,379.9,528.8,361.3,533,340.8z"/>
				<path class="st64" d="M565.6,346.9c-6.1-1-9.1-0.4-12.2,1.7"/>
				<path class="st64" d="M584.1,346.9c3.7-2,9.5-1.3,11,0.6"/>
				<path class="st2" d="M566.8,362.6c-4.7-4.9-12.4-3.8-11.2-1C556.8,364.3,565.2,362,566.8,362.6z"/>
				<path class="st2" d="M583.7,362.6c4.7-4.9,12.4-3.8,11.2-1C593.7,364.3,585.3,362,583.7,362.6z"/>
				<path class="st65" d="M580.1,374.2c-2.6,2-7.5,3-9,3"/>
				<path class="st21" d="M565.5,389.8c6.8,3.1,14.8,1.6,17.6-0.5"/>
			</g>
			<path class="st1" d="M521.7,322.3c-1.2-19.9,24.6-25.9,42.8-24.6c50.7,3.6,36.7,47.5,36.7,47.5c-0.2-8.5-2.5-16.2-7.3-18.2
				c-12.5,6.8-28.1,4.7-37.3,2.7c-13.8-3-18.3,4.8-18.3,10.5c0,8.6,2,22.3-2.9,25.1c0,0-2.7,2.2-2.3,8.9c0.4,6.8,2.6,15,2.6,15
				C516,373.2,510.7,336.8,521.7,322.3z"/>
			<path class="st63" d="M534.9,362.8c-1.9-11.5-13.7-10.1-16.3-4.1c-3.3,7.5,1.9,19.2,12.5,19.2
				C540.5,377.9,535.7,367.3,534.9,362.8z"/>
		</g>
		<path class="st6" d="M534.4,418.5c-3.4,15.3,1.5,42,1.5,42s7.8,44.8,21.5,59.3c0,0,15.6-32.5,17.6-58c1.9-25.5-2.6-40.5-2.6-40.5
			l-18.6-1.3L534.4,418.5z"/>
		<path class="st7" d="M533.9,421.3c1.1,9.8,6.8,19,6.9,18.3c0.1-0.8,5.2-10.3,5.2-10.3s1.6,7,3.2,8.6c0,0-7,44.7-0.5,67.2l8.8,14.8
			l1.1-93.1c2.6,3.5,4.7,6.3,8.4,11.2l5.5-9.8c0,0,2.2,47.8-9.2,75c0,2,2.1,6,2.1,6s10-39.8,10.2-56c0.2-16.3-2.4-31-2.4-31l-19.3-2
			l-19.4-1.5L533.9,421.3z"/>
		<path class="st22" d="M547.7,426.6c0.5,8.6,3.9,10.5,3.9,10.5s-6.1,13.1-2.9,67.9c0,0,5,10,8.8,14.8c0,0,6.5-8.9,7.4-14.5
			c1.9-34.5-2.3-64.7-5.3-67.4c0,0,3.7-4.7,3.7-11.2c0-3.1-6.8-6.9-6.8-6.9S547.2,423.6,547.7,426.6z"/>
		<path class="st6" d="M541.1,411.1c3.4,7.4,15.5,8.6,15.5,8.6c-3.8,5.1-7,11.1-13.6,16.7c0,0-9.5-9.3-8.5-17.9L541.1,411.1z"/>
		<path class="st6" d="M567.6,413.5c-4.2,5.3-11,6.2-11,6.2c5.2,7.5,8.5,12.6,10.4,15.6c0,0,6.3-10.8,5.5-14L567.6,413.5z"/>
		<path class="st23" d="M534.4,418.5c-2.9,30.8,8.1,73.5,23.1,101.3c0,0-36.6-34.8-39.8-49.5l18.3-9.8l-20.2-7.3
			c0,0,1.2-14.7,3.1-24.2c0.9-4.4,4.3-7.8,8.6-8.9L534.4,418.5z"/>
		<path class="st23" d="M572.5,421.3c4.3,33.3-1.3,72.8-15,98.5c0,0,31.3-34,32.8-49.3l-15.2-8.8l16.9-9c0,0-2.4-11.7-5-20.1
			c-1.3-4.1-4.3-7.3-8.2-8.9L572.5,421.3z"/>
		<path class="st2" d="M513.8,481.3c-0.1,1.3-0.8,40.5-0.8,40.5s-20.1,1.9-26.8,5.6L521,525L513.8,481.3z"/>
		<path class="st6" d="M542,526.5c-8.4-1.6-12.9,0.4-17.1,4.6c-5.1,5-4.5,12.9,1.4,12.9h7.4L542,526.5z"/>
		<path class="st63" d="M530.5,544c-11.4-4.5,1.5-19,10.4-17.8c10.9,1.5,16.9,0,20.1,5.3s2.3,12.5,2.3,12.5H530.5z"/>
	</g>
	<g>
		<polygon class="st2" points="511,557.7 510.9,589.8 612.2,589.8 610,567.2 		"/>
		<g>
			<defs>
				<path id="XMLID_4_" d="M654.5,778.8c4.3,9.7,19.6,10.3,21.5,16s0.8,11.3,0.8,11.3h-55v-35.1
					C621.7,770.9,643.5,771.7,654.5,778.8z"/>
			</defs>
			<use xlink:href="#XMLID_4_"  style="overflow:visible;fill:#542F28;"/>
			<clipPath id="XMLID_26_">
				<use xlink:href="#XMLID_4_"  style="overflow:visible;"/>
			</clipPath>
			<path class="st66" d="M659.7,783.5c-17.5-3.3-33.3,0.9-39.1,3.5c-5,2.3-10.2-14.4,1-16.1c11.3-1.7,33.1,2.3,35.3,6.1
				C659.3,780.8,659.7,783.5,659.7,783.5z"/>
			<path class="st67" d="M638.4,786.3c16.3-4.5,22.6-1.8,27.9,0.7"/>
			<path class="st67" d="M642.8,789.1c10.8-4,20.5-3.5,27.9,0"/>
			<path class="st66" d="M678.7,803.8c-4.4-0.8-1.8-1.3-13.5-1.3c-9.3,0-16.5,1.5-23.3,1c-10.3-0.8-9.8-5.5-23.8-5.5
				c-7.5,0-4.8,11.3,5.5,13.3s50.9,2.5,55-0.5V803.8z"/>
			<path class="st68" d="M628.1,806.6v-4c0,0,6,3,9.6,4H628.1z"/>
		</g>
		<path class="st2" d="M556.9,589.8l4.4,27.1c0,12.1-2.1,23.1,5.7,23.1h56l-4.3,141.9c0,0,15-4.3,38.3,0l10-164.8
			c1.6-16.8-9.4-27.4-22.4-27.4H556.9z"/>
		<path class="st42" d="M623.3,630.1L623,640h-52.8l-2.5-50.2h19.4c0,22,20.2,40.3,35.9,40.3C623.1,630.1,623.2,630.1,623.3,630.1z"
			/>
		<g>
			<defs>
				<path id="XMLID_3_" d="M587.8,778.8c4.3,9.7,19.6,10.3,21.5,16S610,806,610,806h-55v-35.1C555,770.9,576.7,771.7,587.8,778.8z"
					/>
			</defs>
			<use xlink:href="#XMLID_3_"  style="overflow:visible;fill:#542F28;"/>
			<clipPath id="XMLID_27_">
				<use xlink:href="#XMLID_3_"  style="overflow:visible;"/>
			</clipPath>
			<path class="st69" d="M593,783.5c-17.5-3.3-33.8,1.4-38,5c-4.2,3.5-11.3-15.8,0-17.5c11.3-1.7,33.1,2.3,35.3,6.1
				C592.5,780.8,593,783.5,593,783.5z"/>
			<path class="st70" d="M571.6,786.3c16.3-4.5,22.6-1.8,27.9,0.7"/>
			<path class="st70" d="M576,789.1c10.8-4,20.5-3.5,27.9,0"/>
			<path class="st69" d="M612,803.8c-4.4-0.8-1.8-1.3-13.5-1.3c-9.3,0-16.5,1.5-23.3,1c-10.3-0.8-9.8-5.5-23.8-5.5
				c-7.5,0-4.8,11.3,5.5,13.3s50.9,2.5,55-0.5V803.8z"/>
			<path class="st71" d="M561.4,806.6v-4c0,0,6,3,9.6,4H561.4z"/>
		</g>
		<path class="st2" d="M510.9,589.8l0.8,27.1c0,12.1,7,23.1,22.2,23.1H545l7,141.9c0,0,15-4.3,38.3,0l-1.2-164.8
			c-0.1-17.8-8.6-27.4-24.1-27.4H510.9z"/>
		<path class="st42" d="M538.9,640h6.2c-0.4-2-1.7-25.6-1.7-25.6S540.2,631.5,538.9,640z"/>
	</g>
	<path class="st2" d="M506.6,429.9c0,0,5.2,20.8,7,59.9c0,0,1.2-2.1,1.1-2.8s-0.9-33.3-6.9-57.9L506.6,429.9z"/>
	<path class="st2" d="M595.5,432.9c0.2,0.2-2.7,27.6-1.5,37h1.5c0,0,0-23.4,1.6-35.7L595.5,432.9z"/>
</g>
<g>
	<rect x="329.1" y="551" class="st72" width="956" height="24"/>
	<g>
		<polygon class="st8" points="370.4,806 354.4,806 365.9,575 388.9,575 		"/>
		<polygon class="st0" points="388.9,575 365.9,575 362.2,649 382.9,649 		"/>
		<polygon class="st8" points="1243.9,806 1259.9,806 1248.4,575 1225.4,575 		"/>
		<polygon class="st0" points="1225.4,575 1248.4,575 1252.1,649 1231.3,649 		"/>
	</g>
</g>
<g>
	<path class="st5" d="M372,544h110.3c1.5,0,2.7,1.2,2.7,2.7v1.7c0,1.5-1.2,2.7-2.7,2.7H372V544z"/>
	<path class="st7" d="M384.3,544h-43.7c-1.5,0-2.7,1.2-2.7,2.7v1.7c0,1.5,1.2,2.7,2.7,2.7h43.7c1.5,0,2.7-1.2,2.7-2.7v-1.7
		C387,545.2,385.8,544,384.3,544z"/>
	<polygon class="st7" points="407.9,458 402.9,458 385,544 390,544 	"/>
	<path class="st73" d="M501.8,458h-99c1.2,0,2,1,1.7,2.2l-17,81.7c-0.2,1.2-1.4,2.2-2.6,2.2h99c1.2,0,2.4-1,2.6-2.2l17-81.7
		C503.7,459,502.9,458,501.8,458z"/>
	
		<ellipse transform="matrix(0.7428 -0.6695 0.6695 0.7428 -219.2273 429.2884)" class="st45" cx="449.2" cy="500" rx="10" ry="8.1"/>
	<path class="st8" d="M375.5,546h2c0.8,0,1.5,0.7,1.5,1.5l0,0c0,0.8-0.7,1.5-1.5,1.5h-2c-0.8,0-1.5-0.7-1.5-1.5l0,0
		C374,546.7,374.7,546,375.5,546z"/>
	<path class="st8" d="M369.5,546h2c0.8,0,1.5,0.7,1.5,1.5l0,0c0,0.8-0.7,1.5-1.5,1.5h-2c-0.8,0-1.5-0.7-1.5-1.5l0,0
		C368,546.7,368.7,546,369.5,546z"/>
	<path class="st8" d="M357.5,546h2c0.8,0,1.5,0.7,1.5,1.5l0,0c0,0.8-0.7,1.5-1.5,1.5h-2c-0.8,0-1.5-0.7-1.5-1.5l0,0
		C356,546.7,356.7,546,357.5,546z"/>
	<path class="st1" d="M403.5,546h2c0.8,0,1.5,0.7,1.5,1.5l0,0c0,0.8-0.7,1.5-1.5,1.5h-2c-0.8,0-1.5-0.7-1.5-1.5l0,0
		C402,546.7,402.7,546,403.5,546z"/>
	<path class="st1" d="M410.5,546h2c0.8,0,1.5,0.7,1.5,1.5l0,0c0,0.8-0.7,1.5-1.5,1.5h-2c-0.8,0-1.5-0.7-1.5-1.5l0,0
		C409,546.7,409.7,546,410.5,546z"/>
</g>
<g>
	<path class="st74" d="M1238.5,544h-110.3c-1.5,0-2.7,1.2-2.7,2.7v1.7c0,1.5,1.2,2.7,2.7,2.7h110.3V544z"/>
	<path class="st75" d="M1226.2,544h43.7c1.5,0,2.7,1.2,2.7,2.7v1.7c0,1.5-1.2,2.7-2.7,2.7h-43.7c-1.5,0-2.7-1.2-2.7-2.7v-1.7
		C1223.5,545.2,1224.7,544,1226.2,544z"/>
	<polygon class="st75" points="1202.6,458 1207.6,458 1225.5,544 1220.5,544 	"/>
	<path class="st76" d="M1108.8,458h99c-1.2,0-2,1-1.7,2.2l17,81.7c0.2,1.2,1.4,2.2,2.6,2.2h-99c-1.2,0-2.4-1-2.6-2.2l-17-81.7
		C1106.8,459,1107.6,458,1108.8,458z"/>
	<path class="st45" d="M1170.3,500c-1-5-5.9-9-10.9-9s-8.2,4-7.1,9s5.9,9,10.9,9S1171.4,505,1170.3,500z"/>
	<path class="st1" d="M1235,546h-2c-0.8,0-1.5,0.7-1.5,1.5l0,0c0,0.8,0.7,1.5,1.5,1.5h2c0.8,0,1.5-0.7,1.5-1.5l0,0
		C1236.5,546.7,1235.8,546,1235,546z"/>
	<path class="st1" d="M1241,546h-2c-0.8,0-1.5,0.7-1.5,1.5l0,0c0,0.8,0.7,1.5,1.5,1.5h2c0.8,0,1.5-0.7,1.5-1.5l0,0
		C1242.5,546.7,1241.8,546,1241,546z"/>
	<path class="st1" d="M1253,546h-2c-0.8,0-1.5,0.7-1.5,1.5l0,0c0,0.8,0.7,1.5,1.5,1.5h2c0.8,0,1.5-0.7,1.5-1.5l0,0
		C1254.5,546.7,1253.8,546,1253,546z"/>
	<path class="st2" d="M1147,546h-2c-0.8,0-1.5,0.7-1.5,1.5l0,0c0,0.8,0.7,1.5,1.5,1.5h2c0.8,0,1.5-0.7,1.5-1.5l0,0
		C1148.5,546.7,1147.8,546,1147,546z"/>
	<path class="st2" d="M1140,546h-2c-0.8,0-1.5,0.7-1.5,1.5l0,0c0,0.8,0.7,1.5,1.5,1.5h2c0.8,0,1.5-0.7,1.5-1.5l0,0
		C1141.5,546.7,1140.8,546,1140,546z"/>
</g>
<g>
	<path class="st1" d="M533,544h122.3c1.5,0,2.7,1.2,2.7,2.7v1.7c0,1.5-1.2,2.7-2.7,2.7H533V544z"/>
	<path class="st2" d="M545.8,544h-30.5c-1.2,0-2.2,1-2.2,2.2v2.5c0,1.2,1,2.2,2.2,2.2h30.5c1.2,0,2.2-1,2.2-2.2v-2.5
		C548,545,547,544,545.8,544z"/>
	<polygon class="st2" points="558.6,458 553.6,458 546,544 551,544 	"/>
	<path class="st23" d="M664.4,458h-111c1.2,0,2.1,1,2,2.2l-7.2,81.7c-0.1,1.2-1.2,2.2-2.4,2.2h111c1.2,0,2.3-1,2.4-2.2l7.2-81.7
		C666.5,459,665.6,458,664.4,458z"/>
	
		<ellipse transform="matrix(0.7225 -0.6914 0.6914 0.7225 -176.7213 559.7117)" class="st45" cx="608.9" cy="500" rx="9.4" ry="8.6"/>
	<path class="st8" d="M540,546h1c0.7,0,1.3,0.6,1.3,1.3v0.5c0,0.7-0.6,1.3-1.3,1.3h-1c-0.7,0-1.3-0.6-1.3-1.3v-0.5
		C538.7,546.6,539.3,546,540,546z"/>
	<path class="st8" d="M535.7,546h1c0.7,0,1.3,0.6,1.3,1.3v0.5c0,0.7-0.6,1.3-1.3,1.3h-1c-0.7,0-1.3-0.6-1.3-1.3v-0.5
		C534.4,546.6,535,546,535.7,546z"/>
	<path class="st8" d="M527.1,546h1c0.7,0,1.3,0.6,1.3,1.3v0.5c0,0.7-0.6,1.3-1.3,1.3h-1c-0.7,0-1.3-0.6-1.3-1.3v-0.5
		C525.9,546.6,526.4,546,527.1,546z"/>
	<path class="st1" d="M564.5,546h2c0.8,0,1.5,0.7,1.5,1.5l0,0c0,0.8-0.7,1.5-1.5,1.5h-2c-0.8,0-1.5-0.7-1.5-1.5l0,0
		C563,546.7,563.7,546,564.5,546z"/>
	<path class="st1" d="M571.5,546h2c0.8,0,1.5,0.7,1.5,1.5l0,0c0,0.8-0.7,1.5-1.5,1.5h-2c-0.8,0-1.5-0.7-1.5-1.5l0,0
		C570,546.7,570.7,546,571.5,546z"/>
</g>
<g>
	<path class="st51" d="M887.5,232.2l-8.2-1.7h-5.5l-8.2,1.7c0.3,0.3,0.7,0.5,1.3,0.7c-0.5-0.2-1-0.4-1.3-0.6c0,0,2.9,5.3,11,5.3
		C883.8,237.5,887.5,232.3,887.5,232.2c-0.3,0.2-0.6,0.3-0.9,0.5C886.9,232.5,887.3,232.4,887.5,232.2z"/>
	<g>
		<path class="st77" d="M880.8,212.3c1.1,3.2,3,5.8,3,7.4c0,1.2-0.1,2.3-2.8,3.5"/>
		<path class="st77" d="M876.1,223.3h-0.4c-0.8,0-1.5-0.4-2-1h0"/>
	</g>
	<g>
		<g>
			<g>
				<g>
					<path class="st42" d="M860.7,197c-1.1,0.1-2.6,0.3-3.8,0.5c-0.6,0.1-1.1,0.2-1.4,0.2c-0.4,0-0.6,0-0.8-0.1
						c-0.2-0.2-0.2-0.5,0-0.9c0.2-0.4,0.6-0.9,1.2-1.3c1.2-0.8,3.1-1.4,5.3-1.6c0,0,0.5,0,0.9-0.1c0.5,0,0.9,0,0.9,0
						c1.3,0,2.4,0.2,3.2,0.6c0.8,0.4,1.1,0.9,1,1.4c-0.3,1-1.9,1.1-4.2,1.1c0,0-0.6,0-1.2,0C861.3,196.9,860.7,197,860.7,197z"/>
				</g>
			</g>
		</g>
	</g>
	<g>
		<g>
			<g>
				<g>
					<g>
						<path class="st42" d="M893.6,193.9c1.3,0.1,3,0.5,4.3,1.2c0.7,0.4,1.2,0.8,1.5,1.2c0.3,0.4,0.4,0.8,0.2,1
							c-0.2,0.2-0.5,0.2-0.9,0.2c-0.4,0-0.8-0.1-1.5-0.1c-1.2-0.1-2.8-0.3-4.7-0.5c0,0-0.4,0-0.8,0c-0.4,0-0.8,0-0.8,0
							c-2.3,0-3.9-0.1-4.2-1.1c-0.1-0.5,0.2-1,1-1.4c0.7-0.4,1.9-0.6,3.2-0.6c0,0,0.7,0,1.3,0C892.9,193.8,893.6,193.9,893.6,193.9z
							"/>
					</g>
				</g>
			</g>
		</g>
	</g>
</g>
</svg>
